<svg width="24" height="23" viewBox="0 0 24 23" fill="none" xmlns="http://www.w3.org/2000/svg">
<g clip-path="url(#clip0_214_252)">
<path d="M1.41895 1.67859H2.12632C3.31704 1.67859 4.31675 2.60719 4.44589 3.83317L5.392 12.8157C5.52114 14.0416 6.52085 14.9703 7.71158 14.9703H17.806C18.8726 14.9703 19.8034 14.2212 20.0669 13.1508L21.6769 6.61234C22.0531 5.08433 20.9384 3.5985 19.4159 3.5985H5.61895M5.64783 19.3504H6.52283M5.64783 20.2566H6.52283M18.4812 19.3504H19.3562M18.4812 20.2566H19.3562M7.25228 19.8036C7.25228 20.4709 6.72994 21.0119 6.08561 21.0119C5.44128 21.0119 4.91895 20.4709 4.91895 19.8036C4.91895 19.1362 5.44128 18.5953 6.08561 18.5953C6.72994 18.5953 7.25228 19.1362 7.25228 19.8036ZM20.0856 19.8036C20.0856 20.4709 19.5633 21.0119 18.9189 21.0119C18.2746 21.0119 17.7523 20.4709 17.7523 19.8036C17.7523 19.1362 18.2746 18.5953 18.9189 18.5953C19.5633 18.5953 20.0856 19.1362 20.0856 19.8036Z" stroke="#201F54" stroke-width="2" stroke-linecap="round"/>
</g>
<defs>
<clipPath id="clip0_214_252">
<rect width="23" height="22" fill="white" transform="translate(0.327148 0.673859)"/>
</clipPath>
</defs>
</svg>
