<svg width="46" height="38" viewBox="0 0 46 38" fill="none" xmlns="http://www.w3.org/2000/svg">
<path fill-rule="evenodd" clip-rule="evenodd" d="M7.91925 8.26017C7.81324 6.23067 8.37593 4.87768 9.60732 4.19303C9.94982 3.99741 10.0477 3.98926 10.9121 4.00557C11.2992 4.01176 11.5123 4.00737 11.7183 4.04329C12.0548 4.10195 12.3726 4.26814 13.3993 4.76357C16.2617 6.14917 19.8091 10.4201 21.4727 14.4954C21.9865 15.7669 22.4921 17.5844 22.4921 18.1876C22.4921 18.4892 22.6388 18.5462 23.3891 18.5299C24.0496 18.5136 24.0823 18.5055 24.1312 18.318C24.1638 18.212 24.2698 17.7719 24.3677 17.3481C24.4655 16.9242 24.6613 16.2966 24.7917 15.9625C25.0364 15.3186 25.6806 13.9167 25.754 13.8433C25.7785 13.8189 25.8682 13.6559 25.9579 13.4847C26.2596 12.8897 27.4176 11.2025 28.1108 10.3549C29.5868 8.53729 30.9242 7.30655 32.5307 6.24698C33.5909 5.54602 34.6836 4.97548 35.1729 4.85323C35.2626 4.82877 35.5236 4.73912 35.7438 4.65761C36.2657 4.462 37.2361 4.42939 37.864 4.59241C38.8753 4.85323 39.5276 5.51342 39.8701 6.63005C40.0332 7.16799 39.9925 8.78996 39.7804 9.64577C38.9894 12.8897 36.6897 16.5819 33.8029 19.239C32.9222 20.0459 31.3564 21.2441 30.8916 21.4723C30.7122 21.5619 30.5654 21.6516 30.5654 21.6923C30.5654 21.7249 30.8019 22.051 31.0955 22.4177C31.862 23.3877 32.7101 25.1563 33.0037 26.4034C33.1668 27.1125 33.3381 28.4329 33.3381 29.0116C33.3381 29.6555 33.1424 31.1063 32.9711 31.7339C32.7346 32.5978 32.6612 32.8097 32.4737 33.2254C32.3676 33.4618 32.2779 33.6655 32.2779 33.6818C32.2779 33.6981 32.1311 33.9753 31.9517 34.3013C31.7723 34.6273 31.6255 34.9044 31.6255 34.9207C31.6255 34.937 32.0007 35.2305 32.4655 35.5809C33.1315 36.0842 33.7533 36.6459 34.3238 37.2559L45.5079 37.2559V3.91889e-06H29.5166L22.7539 7.7637L16.0157 3.91889e-06H0V37.2559L13.0781 37.2559C13.8047 36.4891 14.6258 35.7545 15.2342 35.3527L15.4299 35.2223L15.1771 34.8229C14.5655 33.8612 14.0273 32.5 13.7582 31.2448C13.4646 29.8511 13.4727 27.8623 13.7663 26.6968C14.068 25.5394 14.2148 25.1074 14.5737 24.3576C14.9651 23.5507 15.1608 23.2083 15.6419 22.5644L16.0823 21.9695L15.8377 21.7738C15.7445 21.6982 15.6429 21.6183 15.5777 21.567C15.5516 21.5465 15.5313 21.5305 15.5196 21.5212C15.0793 21.2033 13.7582 19.9807 13.2362 19.4102C10.8876 16.8509 8.79998 13.0446 8.22098 10.2978C8.21538 10.2714 8.20963 10.2443 8.20376 10.2166C8.14982 9.96197 8.08651 9.66318 8.04973 9.52351C8.00896 9.36865 7.95187 8.79811 7.91925 8.26017Z" fill="white"/>
</svg>
