<svg width="84" height="57" viewBox="0 0 84 57" fill="none" xmlns="http://www.w3.org/2000/svg">
<g clip-path="url(#clip0_21_62)">
<path d="M13.7915 0.218666C14.95 0.526018 15.9667 1.08162 16.8534 1.9091C17.4917 2.51198 18.3074 3.54043 18.3074 3.76503C18.3074 3.8005 17.87 3.91871 17.338 4.01328L16.3568 4.20242L16.1204 3.89507C15.3283 2.8548 13.8743 2.02732 12.6211 1.92092C10.174 1.6845 7.84514 3.72957 6.93486 6.89766C6.55656 8.24528 6.55656 10.6332 6.93486 11.9808C7.63235 14.4041 9.24011 16.2719 11.0843 16.8157C11.439 16.9221 11.9355 17.0048 12.1837 17.0048C13.1058 17.0048 13.5551 17.986 12.9285 18.6007C12.5857 18.9553 12.0182 18.979 10.8715 18.7189C7.91607 18.0214 5.53989 15.1016 4.88969 11.3661C4.00305 6.28296 6.74571 1.14072 10.8715 0.159561C11.8764 -0.0768642 12.7394 -0.0532207 13.7915 0.218666Z" fill="#4A3AFF"/>
<path d="M21.6766 5.7865C23.379 6.03474 25.6842 6.99226 27.1501 8.06799C31.0513 10.9524 32.9428 16.071 31.7961 20.7285L31.5596 21.6742L38.4754 28.5896L45.3793 35.505V39.2051V42.9051L45.0838 43.1888L44.8001 43.4844H41.1235H37.4469L37.1632 43.1888C36.8795 42.917 36.8676 42.846 36.8676 41.2974V39.7016H35.2717C33.723 39.7016 33.6521 39.6898 33.3802 39.4061C33.0965 39.1342 33.0847 39.0632 33.0847 37.5147V35.9188H31.4651H29.8455L26.8428 32.9162L23.8282 29.9254L24.1828 29.4053C25.034 28.1641 25.8143 26.2845 26.1807 24.5704C26.4526 23.3174 26.4881 20.4093 26.2398 19.1918C25.365 14.7588 22.5514 11.0469 18.5793 9.03733C17.1489 8.32806 14.9027 7.66607 13.8624 7.66607C13.6378 7.66607 13.4605 7.61878 13.4605 7.54786C13.4605 7.39418 15.1155 6.57851 16.0613 6.27116C17.7518 5.71556 19.9034 5.53825 21.6766 5.7865Z" fill="#170F49"/>
<path d="M14.1107 9.55743C16.5932 9.94753 19.2295 11.2952 20.991 13.0802C25.2113 17.3476 25.7433 23.9911 22.2677 28.8851C21.5466 29.9018 19.7969 31.5449 18.8039 32.1242L17.9527 32.6325V42.0422V51.4637L15.3165 54.088C12.9048 56.5113 12.6566 56.7241 12.2783 56.7241C11.9 56.7241 11.6517 56.5113 9.24008 54.088C6.85208 51.7001 6.60382 51.4164 6.60382 51.0618C6.60382 50.7189 6.7575 50.5062 7.80964 49.4422L9.01547 48.2128L7.80964 46.9834C6.20188 45.3521 6.20188 45.3994 7.80964 43.7681L9.01547 42.5387L7.80964 41.3092L6.60382 40.0917V36.3561V32.6206L6.2137 32.4197C5.07881 31.8404 2.9627 29.9018 2.147 28.696C1.13032 27.2065 0.338261 25.1142 0.090004 23.3173C-0.311937 20.3147 0.610165 16.8157 2.44254 14.4041C3.36465 13.1866 3.31736 13.1866 3.75476 14.3568C4.61776 16.6147 6.4856 18.7307 8.61353 19.8537C8.90907 20.0074 9.3583 20.3384 9.59473 20.5866C9.84299 20.8231 10.3159 21.1659 10.6587 21.3432C11.1907 21.6269 11.4153 21.6742 12.2783 21.6742C13.1413 21.6742 13.3777 21.6269 13.957 21.3432C14.6899 20.9886 15.3165 20.362 15.7302 19.5818C15.9549 19.1563 16.0022 18.8962 16.0022 17.9505C16.0022 16.6975 15.8248 16.2128 15.0446 15.3498C14.1698 14.3805 12.5384 13.9431 11.2734 14.3332L10.6823 14.5105L10.174 14.014C9.51198 13.3757 8.80267 11.9453 8.62535 10.9169C8.50713 10.2667 8.50713 10.0894 8.63717 10.0185C9.28737 9.60472 12.6329 9.33283 14.1107 9.55743Z" fill="#170F49"/>
</g>
<g clip-path="url(#clip1_21_62)">
<path d="M70.2085 0.218666C69.05 0.526018 68.0333 1.08162 67.1466 1.9091C66.5083 2.51198 65.6926 3.54043 65.6926 3.76503C65.6926 3.8005 66.13 3.91871 66.662 4.01328L67.6432 4.20242L67.8796 3.89507C68.6717 2.8548 70.1257 2.02732 71.3789 1.92092C73.826 1.6845 76.1549 3.72957 77.0651 6.89766C77.4434 8.24528 77.4434 10.6332 77.0651 11.9808C76.3677 14.4041 74.7599 16.2719 72.9157 16.8157C72.561 16.9221 72.0645 17.0048 71.8163 17.0048C70.8942 17.0048 70.4449 17.986 71.0715 18.6007C71.4143 18.9553 71.9818 18.979 73.1285 18.7189C76.0839 18.0214 78.4601 15.1016 79.1103 11.3661C79.9969 6.28296 77.2543 1.14072 73.1285 0.159561C72.1236 -0.0768642 71.2606 -0.0532207 70.2085 0.218666Z" fill="#4A3AFF"/>
<path d="M62.3234 5.7865C60.621 6.03474 58.3158 6.99226 56.8499 8.06799C52.9487 10.9524 51.0572 16.071 52.2039 20.7285L52.4404 21.6742L45.5246 28.5896L38.6207 35.505V39.2051V42.9051L38.9162 43.1888L39.1999 43.4844H42.8765H46.5531L46.8368 43.1888C47.1205 42.917 47.1324 42.846 47.1324 41.2974V39.7016H48.7283C50.277 39.7016 50.3479 39.6898 50.6198 39.4061C50.9035 39.1342 50.9153 39.0632 50.9153 37.5147V35.9188H52.5349H54.1545L57.1572 32.9162L60.1718 29.9254L59.8172 29.4053C58.966 28.1641 58.1857 26.2845 57.8193 24.5704C57.5474 23.3174 57.5119 20.4093 57.7602 19.1918C58.635 14.7588 61.4486 11.0469 65.4207 9.03733C66.8511 8.32806 69.0973 7.66607 70.1376 7.66607C70.3622 7.66607 70.5395 7.61878 70.5395 7.54786C70.5395 7.39418 68.8845 6.57851 67.9387 6.27116C66.2482 5.71556 64.0966 5.53825 62.3234 5.7865Z" fill="#170F49"/>
<path d="M69.8893 9.55743C67.4068 9.94753 64.7705 11.2952 63.009 13.0802C58.7887 17.3476 58.2567 23.9911 61.7323 28.8851C62.4534 29.9018 64.2031 31.5449 65.1961 32.1242L66.0473 32.6325V42.0422V51.4637L68.6835 54.088C71.0952 56.5113 71.3434 56.7241 71.7217 56.7241C72.1 56.7241 72.3483 56.5113 74.7599 54.088C77.1479 51.7001 77.3962 51.4164 77.3962 51.0618C77.3962 50.7189 77.2425 50.5062 76.1904 49.4422L74.9845 48.2128L76.1904 46.9834C77.7981 45.3521 77.7981 45.3994 76.1904 43.7681L74.9845 42.5387L76.1904 41.3092L77.3962 40.0917V36.3561V32.6206L77.7863 32.4197C78.9212 31.8404 81.0373 29.9018 81.853 28.696C82.8697 27.2065 83.6617 25.1142 83.91 23.3173C84.3119 20.3147 83.3898 16.8157 81.5575 14.4041C80.6354 13.1866 80.6826 13.1866 80.2452 14.3568C79.3822 16.6147 77.5144 18.7307 75.3865 19.8537C75.0909 20.0074 74.6417 20.3384 74.4053 20.5866C74.157 20.8231 73.6841 21.1659 73.3413 21.3432C72.8093 21.6269 72.5847 21.6742 71.7217 21.6742C70.8587 21.6742 70.6223 21.6269 70.043 21.3432C69.3101 20.9886 68.6835 20.362 68.2698 19.5818C68.0451 19.1563 67.9978 18.8962 67.9978 17.9505C67.9978 16.6975 68.1752 16.2128 68.9554 15.3498C69.8302 14.3805 71.4616 13.9431 72.7266 14.3332L73.3177 14.5105L73.826 14.014C74.488 13.3757 75.1973 11.9453 75.3747 10.9169C75.4929 10.2667 75.4929 10.0894 75.3628 10.0185C74.7126 9.60472 71.3671 9.33283 69.8893 9.55743Z" fill="#170F49"/>
</g>
<defs>
<clipPath id="clip0_21_62">
<rect width="45.3793" height="56.7241" fill="white" transform="matrix(-1 0 0 1 45.3793 0)"/>
</clipPath>
<clipPath id="clip1_21_62">
<rect width="45.3793" height="56.7241" fill="white" transform="translate(38.6207)"/>
</clipPath>
</defs>
</svg>
