<svg width="24" height="24" viewBox="0 0 24 24" fill="none" xmlns="http://www.w3.org/2000/svg">
<path d="M3 4H3.60632C4.62694 4 5.48384 4.7685 5.59452 5.78311L6.40548 13.2169C6.51616 14.2315 7.37306 15 8.39368 15H17.046C17.9602 15 18.7581 14.3801 18.984 13.4942L20.3639 8.08311C20.6864 6.81854 19.731 5.58889 18.426 5.58889H6.6M6.62476 18.6249H7.37476M6.62476 19.3749H7.37476M17.6248 18.6249H18.3748M17.6248 19.3749H18.3748M8 19C8 19.5523 7.55229 20 7 20C6.44772 20 6 19.5523 6 19C6 18.4477 6.44772 18 7 18C7.55229 18 8 18.4477 8 19ZM19 19C19 19.5523 18.5523 20 18 20C17.4477 20 17 19.5523 17 19C17 18.4477 17.4477 18 18 18C18.5523 18 19 18.4477 19 19Z" stroke="#111111" stroke-width="2" stroke-linecap="round"/>
</svg>
