<svg width="795" height="796" viewBox="0 0 795 796" fill="none" xmlns="http://www.w3.org/2000/svg">
<path d="M779.104 364.002C786.635 458.13 762.289 552.025 710.429 628.863C658.569 705.702 582.582 760.464 496.083 783.339C409.584 806.214 318.224 795.707 238.371 753.7C158.518 711.693 95.3901 640.931 60.2962 554.092C25.2022 467.252 20.4358 370.01 46.8508 279.786C73.2658 189.561 129.136 112.251 204.453 61.7042C279.769 11.1578 369.61 -9.32148 457.88 3.93526C546.15 17.192 627.082 63.3185 686.175 134.051" fill="white"/>
<path d="M380.786 0.777762C368.681 2.36723 356.369 2.24592 344.208 3.84497C321.635 6.81325 299.146 11.996 277.414 18.7495C243.533 29.2784 211.111 45.0388 181.198 64.0118C175.178 67.8297 168.662 71.1157 162.909 75.313C154.577 81.3913 146.821 88.8342 139.054 95.6345C119.994 112.323 102.42 130.124 86.5725 149.933C76.5745 162.43 66.532 174.274 58.3065 188.101C3.26563 280.621 -13.9699 392.25 12.1245 496.628C20.1851 528.87 33.0424 559.533 48.4926 588.868C51.3866 594.362 53.2906 600.222 56.518 605.566C62.4494 615.389 69.8632 624.237 76.7335 633.397C99.7823 664.129 126.527 692.307 157.343 715.383C202.242 749.006 253.248 772.188 307.63 785.378C351.436 796.003 398.931 798.877 443.605 793.003C457.479 791.178 471.207 788.839 484.954 786.278C492.995 784.779 500.94 783.892 508.809 781.522C524.758 776.717 539.794 770.095 554.929 763.253C606.136 740.102 651.342 708.413 690.673 668.282C694.412 664.467 697.29 659.799 700.653 655.662C708.475 646.04 716.169 636.403 723.282 626.241C752.046 585.148 773.23 538.39 784.456 489.471C787.171 477.639 790.215 465.759 791.663 453.688C798.29 398.453 795.144 342.839 780.165 289.088C743.663 158.104 637.443 53.2004 507.218 15.78C477.689 7.29467 447.89 3.25476 417.364 1.16433C405.488 0.351004 392.656 -0.780431 380.786 0.777762ZM399.87 6.28284C411.774 3.98355 416.474 21.612 404.641 24.4835C392.751 27.3686 387.42 8.68771 399.87 6.28284ZM651.145 135.619C647.113 134.488 644.68 131.398 641.603 128.69C636.13 123.874 630.65 118.973 624.904 114.487C606.649 100.235 587.481 86.832 566.856 76.1868C481.783 32.2772 381.827 22.0623 290.136 50.5561C255.543 61.3063 222.036 77.1037 192.33 97.9196C181.025 105.842 170.215 114.263 159.728 123.231C155.004 127.271 149.86 133.925 143.825 135.619C143.494 131.667 145.847 129.552 148.597 126.904C152.879 122.779 157.574 119.002 162.114 115.163C182.929 97.5617 206.132 82.4023 230.499 70.2187C330.667 20.1344 454.392 15.5333 555.724 65.841C582.379 79.0742 607.314 94.435 630.47 113.198C635.871 117.575 641.365 122.08 646.373 126.904C649.122 129.552 651.476 131.667 651.145 135.619ZM509.604 305.786C495.209 303.66 481.08 297.841 466.665 295.14C437.676 289.708 407.869 287.829 378.401 289.119C356.789 290.065 335.109 293.482 313.992 298.172C304.432 300.295 295.018 304.361 285.365 305.786C284.549 300.068 285.455 294.008 286.026 288.292C287.196 276.593 288.612 264.981 290.013 253.305C293.791 221.835 300.941 190.203 311.333 160.27C317.68 141.986 324.858 123.291 335.461 106.993C349.611 85.2452 369.005 61.3275 397.485 61.3275C426.293 61.3275 445.823 85.795 460.03 107.789C470.22 123.564 477.332 141.767 483.366 159.475C493.318 188.684 500.07 218.788 504.375 249.329C506.204 262.304 507.922 275.23 508.879 288.292C509.304 294.079 510.252 299.982 509.604 305.786ZM98.5005 547.519H96.115C88.5284 529.272 81.0263 511.386 74.6429 492.652C72.8313 487.335 70.1234 482.222 68.8215 476.748C64.1837 457.249 62.764 436.243 61.8914 416.315C61.3157 403.17 60.2953 389.748 61.1986 376.557C65.2595 317.257 86.2002 258.792 119.176 209.571C134.095 187.301 151.823 167.067 171.656 149.078C176.365 144.807 181.156 140.619 185.969 136.466C188.529 134.258 192.136 130.901 195.511 130.107C199.102 129.263 203.732 133.087 206.644 134.836C217.6 141.415 226.776 151.561 234.14 161.86C256.444 193.056 269.659 231.039 277.256 268.413C278.978 276.886 280.876 285.286 282.082 293.859C282.526 297.017 283.836 300.984 283.185 304.152C282.476 307.605 278.647 308.247 275.824 309.304C269.181 311.793 262.495 314.202 255.945 316.928C230.479 327.525 205.953 341.891 184.379 359.066C142.975 392.027 110.155 438.308 100.579 491.061C97.2462 509.423 98.5005 528.911 98.5005 547.519ZM701.241 542.748L699.651 541.157L697.265 547.519C695.209 542.609 697.265 534.626 697.265 529.23C697.265 516.597 696.794 504.324 694.542 491.857C687.212 451.29 666.257 414.466 638.351 384.508C614.45 358.85 584.796 338.707 553.339 323.486C544.008 318.971 534.467 314.913 524.713 311.395C520.986 310.052 516.073 310.089 514.525 305.771C513.364 302.533 514.969 298.701 515.497 295.449C516.841 287.166 518.602 279.022 520.259 270.799C527.718 233.8 541.519 195.476 564.177 165.041C571.625 155.036 580.755 145.889 591.504 139.473C594.489 137.692 597.263 133.579 601.061 134.378C604.581 135.118 607.78 138.008 610.591 140.096C616.122 144.203 621.425 148.411 626.495 153.073C629.29 155.645 632.499 157.642 635.242 160.285C649.899 174.409 662.5 190.666 674.317 207.185C725.643 278.937 743.465 373.171 727.939 459.254C725.11 474.944 721.41 491.155 716.003 506.17C711.555 518.522 705.458 530.363 701.241 542.748ZM201.873 137.21L201.078 138.8H202.668L201.873 137.21ZM128.717 147.547L131.103 149.138L117.138 166.631L108.043 176.173C107.117 171.673 109.274 169.257 112.019 165.836C116.994 159.635 122.216 152.165 128.717 147.547ZM667.048 147.547C672.44 153.052 677.463 159.053 682.312 165.041C685.236 168.651 687.92 171.351 686.928 176.173L677.832 166.631L663.868 149.138L667.048 147.547ZM96.115 189.691C97.0497 193.77 94.8452 196.664 92.6613 200.028C89.2458 205.29 86.0582 210.701 82.5971 215.932C78.848 213.42 80.9248 210.493 82.8228 207.185C86.1503 201.387 90.1285 192.946 96.115 189.691ZM712.373 215.932C708.912 210.701 705.724 205.29 702.309 200.028C700.125 196.664 697.921 193.771 698.855 189.691C704.894 192.974 708.741 201.407 712.211 207.185C714.188 210.477 716.117 213.426 712.373 215.932ZM61.1269 258.076C56.1528 253.144 64.2778 241.823 66.8894 236.606C67.8201 234.747 69.1128 230.6 71.5126 230.182C73.0331 229.918 73.3893 231.533 73.2251 232.678C72.8352 235.396 70.8745 238.153 69.6799 240.582C68.5228 242.936 67.5388 245.356 66.4477 247.739C64.8316 251.268 63.3173 254.872 61.1269 258.076ZM734.638 258.076C729.211 253.34 726.873 243.817 723.702 237.402C723.075 236.132 719.9 230.75 722.892 230.182C725.503 229.687 727.229 234.906 728.08 236.606C730.959 242.358 737.822 251.834 734.638 258.076ZM48.4041 295.449L45.2235 294.654C45.6054 286.298 49.6433 276.732 53.1752 269.208C56.8746 270.448 55.7986 273.199 54.7649 276.365C52.6911 282.716 50.7906 289.217 48.4041 295.449ZM741.794 269.208C745.326 276.732 749.364 286.298 749.746 294.654L746.565 295.449C744.179 289.216 742.278 282.716 740.204 276.365C739.171 273.199 738.095 270.448 741.794 269.208ZM537.435 281.136V283.521H538.23L537.435 281.136ZM40.4521 330.437C35.8396 329.667 36.6317 326.318 37.4389 322.485C38.6639 316.668 40.4544 310.879 41.2472 304.991C45.9514 305.777 44.8574 309.155 43.9304 312.943C42.5305 318.663 40.9198 324.559 40.4521 330.437ZM753.721 304.991C754.514 310.879 756.304 316.668 757.53 322.485C758.336 326.318 759.129 329.667 754.516 330.437C754.049 324.559 752.438 318.663 751.038 312.943C750.111 309.155 749.017 305.777 753.721 304.991ZM397.485 316.578C497.216 316.578 603.46 363.48 649.751 456.074C656.069 468.712 660.936 482.121 664.364 495.832C668.588 512.726 669.842 529.401 669.445 546.723C668.958 568.035 665.56 591.43 656.859 611.132C653.44 618.874 645.206 625.321 639.285 631.147C627.938 642.311 616.877 653.306 604.229 663.096C545.853 708.283 471.883 735.72 397.485 734.022C358.541 733.133 319.177 727.651 282.185 714.747C273.702 711.788 265.694 707.354 257.534 703.618C233.164 692.459 210.22 678.446 189.15 661.856C175.175 650.853 161.72 638.804 149.959 625.445C145.776 620.694 140.309 616.099 137.5 610.337C127.74 590.318 126.353 567.674 125.505 545.928C124.839 528.84 126.556 511.649 130.808 495.037C154.685 401.734 243.141 340.595 333.871 322.048C354.411 317.849 376.572 316.578 397.485 316.578ZM34.0912 368.605C31.1271 366.883 31.6032 364.648 31.6976 361.448C31.8657 355.757 32.4354 349.404 34.0912 343.955C37.8155 345.452 37.2969 348.344 36.8135 351.906C36.0642 357.427 36.268 363.446 34.0912 368.605ZM760.878 343.955C762.534 349.404 763.104 355.757 763.272 361.448C763.367 364.648 763.843 366.883 760.878 368.605C758.701 363.446 758.905 357.427 758.156 351.906C757.672 348.345 757.154 345.452 760.878 343.955ZM30.1153 409.954V386.099L33.615 387.942L34.0911 402.797L33.615 408.111L30.1153 409.954ZM764.854 386.099V409.954L761.354 408.111L760.878 402.797L761.354 387.942L764.854 386.099ZM34.0912 427.448L36.0196 438.58L37.1436 448.831L34.0912 452.098C32.4354 446.649 31.8657 440.296 31.6976 434.604C31.6032 431.404 31.1271 429.17 34.0912 427.448ZM760.878 452.098C757.154 450.601 757.673 447.708 758.156 444.146C758.91 438.587 758.901 432.728 760.878 427.448C763.842 429.17 763.366 431.404 763.272 434.604C763.104 440.296 762.534 446.649 760.878 452.098ZM40.4525 465.616C40.9202 471.493 42.5309 477.39 43.9308 483.11C44.8578 486.897 45.9519 490.276 41.2477 491.061C40.455 485.174 38.6643 479.384 37.4393 473.568C36.6321 469.735 35.8401 466.386 40.4525 465.616ZM753.722 491.061C749.018 490.275 750.112 486.897 751.039 483.11C752.438 477.39 754.049 471.493 754.517 465.616C759.129 466.386 758.337 469.735 757.53 473.568C756.305 479.384 754.514 485.174 753.722 491.061ZM48.4043 500.603C50.7907 506.836 52.6912 513.336 54.765 519.688C55.7988 522.853 56.8747 525.604 53.1753 526.844C49.6434 519.32 45.6054 509.755 45.2236 501.399L48.4043 500.603ZM749.746 501.399C749.364 509.755 745.326 519.32 741.794 526.844C738.095 525.604 739.171 522.853 740.204 519.688C742.278 513.336 744.179 506.836 746.565 500.603L749.746 501.399ZM61.127 537.977C63.3174 541.181 64.8317 544.785 66.4478 548.314C67.5388 550.697 68.5228 553.117 69.68 555.471C70.8746 557.9 72.8353 560.657 73.2251 563.375C73.3894 564.52 73.0333 566.135 71.5127 565.87C69.1129 565.453 67.8201 561.305 66.8896 559.447C64.278 554.23 56.153 542.909 61.127 537.977ZM734.638 537.977C737.822 544.219 730.959 553.695 728.08 559.447C727.229 561.147 725.503 566.366 722.892 565.87C719.9 565.302 723.075 559.921 723.702 558.651C726.873 552.236 729.211 542.713 734.638 537.977ZM82.5966 580.121C86.0577 585.352 89.2453 590.763 92.6608 596.024C94.8447 599.389 97.0493 602.282 96.1145 606.362C90.1281 603.107 86.1499 594.666 82.8224 588.868C80.9243 585.56 78.8476 582.633 82.5966 580.121ZM698.855 606.362C697.92 602.282 700.125 599.389 702.309 596.024C705.724 590.763 708.912 585.352 712.373 580.121C716.116 582.627 714.188 585.576 712.211 588.868C708.741 594.646 704.894 603.078 698.855 606.362ZM131.103 646.915L128.717 648.506H127.922C122.531 643.001 117.507 637 112.658 631.012C109.734 627.402 107.051 624.701 108.043 619.879L117.138 629.422L131.103 646.915ZM686.928 619.879C687.92 624.701 685.236 627.402 682.313 631.012C677.463 637 672.44 643.001 667.049 648.506H666.253L663.868 646.915L677.832 629.422L686.928 619.879ZM651.145 660.433C651.476 664.386 649.122 666.501 646.373 669.149C642.091 673.274 637.395 677.05 632.856 680.889C612.041 698.491 588.838 713.65 564.471 725.834C464.225 775.957 341.485 780.476 240.041 730.602C213.063 717.339 187.89 701.807 164.5 682.854C159.099 678.477 153.604 673.972 148.597 669.149C145.848 666.501 143.494 664.386 143.825 660.433C149.86 662.127 155.004 668.781 159.728 672.822C169.968 681.579 180.512 689.813 191.535 697.573C221.431 718.618 255.269 734.661 290.137 745.496C381.687 773.947 481.901 763.714 566.857 719.866C587.481 709.22 606.65 695.817 624.904 681.565C630.65 677.079 636.13 672.179 641.603 667.363C644.68 664.655 647.114 661.565 651.145 660.433ZM572.423 663.614L570.832 664.41V665.205L572.423 663.614ZM402.256 771.341C414.294 770.915 414.485 789.553 402.256 789.941C389.633 790.342 389.811 771.782 402.256 771.341Z" fill="#4A3AFF"/>
<path d="M370.617 725.815C357.233 724.64 348.889 723.542 337.282 721.431C266.179 708.497 200.132 672.032 151.736 618.992C143.858 610.358 142.1 607.259 142.704 603.075C142.926 601.537 142.929 600.891 142.71 601.642C142.102 603.726 141.026 603.271 140.448 600.686C139.677 597.237 143.889 586.226 153.355 566.942C155.829 561.903 158.132 557.78 158.474 557.78C158.816 557.78 159.096 557.276 159.096 556.66C159.096 555.547 166.588 543.816 168.964 541.21C169.648 540.46 170.208 539.643 170.208 539.396C170.208 537.622 183.696 522.563 192.52 514.487C194.872 512.334 198.134 509.702 199.768 508.639C201.402 507.575 202.741 506.442 202.744 506.121C202.747 505.799 203.218 505.536 203.79 505.536C204.363 505.536 205.59 504.841 206.517 503.993C209.373 501.378 225.304 493.062 227.468 493.057C228.06 493.055 229.695 492.364 231.102 491.522C232.508 490.68 235.365 489.764 237.451 489.488C239.537 489.213 241.423 488.725 241.641 488.406C242.007 487.871 244.134 487.565 256.608 486.254C262.184 485.668 261.908 485.666 271.008 486.383C275.155 486.709 278.888 487.182 279.304 487.433C279.72 487.684 282.399 488.324 285.257 488.856C288.115 489.388 292.418 490.508 294.819 491.345C302.252 493.935 317.016 501.569 320.809 504.783C322.057 505.84 324.309 507.562 325.814 508.61C332.562 513.305 349.657 530.326 352.25 534.931C352.685 535.704 354.806 538.606 356.964 541.379C359.121 544.152 361.282 547.31 361.765 548.397C362.248 549.483 363.741 551.951 365.082 553.881C368.428 558.698 382.126 586.167 382.126 588.061C382.126 588.428 382.85 590.801 383.735 593.333C384.62 595.866 386.178 600.745 387.197 604.176C388.87 609.81 389.48 612.113 391.333 619.772C391.644 621.058 392.013 622.462 392.154 622.891C393.036 625.585 393.946 631.363 393.58 631.944C393.34 632.326 393.522 632.638 393.984 632.638C394.447 632.638 394.825 633.956 394.825 635.567C394.825 637.178 395.181 639.716 395.616 641.206C396.051 642.696 396.593 646.378 396.82 649.388C397.047 652.398 397.399 655.914 397.602 657.2C398.244 661.26 398.748 667.802 399.19 677.814C399.426 683.148 399.79 687.68 399.999 687.886C400.209 688.092 400.404 684.079 400.433 678.969C400.483 670.006 400.845 663.326 401.589 657.59C401.784 656.089 402.113 653.279 402.319 651.346C402.977 645.196 403.483 641.719 404.364 637.316C404.836 634.957 405.39 631.799 405.595 630.298C405.8 628.797 406.195 626.867 406.473 626.01C406.751 625.152 407.065 623.748 407.171 622.891C407.276 622.033 408.141 618.524 409.092 615.093C410.043 611.662 410.923 608.328 411.047 607.685C411.171 607.042 411.466 605.989 411.703 605.346C411.94 604.703 413.292 600.667 414.707 596.379C418.002 586.392 419.947 581.953 421.027 581.953C422.257 581.953 424.253 577.014 423.266 576.414C422.453 575.92 430.94 558.387 432.223 557.91C432.608 557.767 432.923 557.176 432.923 556.595C432.923 555.531 440.487 543.737 442.79 541.21C443.475 540.46 444.034 539.633 444.034 539.373C444.034 538.709 448.771 532.784 450.951 530.72C451.949 529.776 452.765 528.776 452.765 528.499C452.765 528.222 453.747 527.029 454.948 525.849C456.148 524.668 458.242 522.51 459.6 521.052C463.634 516.723 470.413 510.709 473.594 508.639C475.228 507.575 476.568 506.442 476.571 506.121C476.574 505.799 477.023 505.535 477.568 505.535C478.114 505.534 479.585 504.668 480.837 503.61C482.089 502.552 484.679 500.942 486.591 500.033C488.504 499.123 490.069 498.059 490.069 497.669C490.069 497.278 490.544 496.958 491.125 496.958C491.706 496.958 493.938 496.083 496.086 495.012C498.233 493.942 500.526 493.063 501.181 493.06C501.836 493.056 503.522 492.364 504.929 491.522C506.335 490.68 509.192 489.764 511.278 489.488C513.364 489.213 515.249 488.718 515.468 488.389C516.013 487.568 530.194 485.841 536.501 485.828C539.63 485.82 552.522 487.065 553.131 487.433C553.547 487.684 556.226 488.324 559.084 488.856C561.942 489.388 566.245 490.508 568.646 491.345C576.078 493.935 590.843 501.569 594.636 504.783C595.883 505.84 598.136 507.562 599.641 508.61C607.084 513.789 621.664 528.444 626.714 535.823C628.082 537.821 630.01 540.333 631 541.405C635.928 546.742 648.731 570.756 654.834 586.109L657.881 593.774L655.162 601.667C652.042 610.722 650.082 613.354 635.351 628.268C583.472 680.789 515.595 714.332 441.257 724.182C429.883 725.689 403.757 727.447 403.05 726.752C402.083 725.803 400.692 707.105 400.432 691.575C400.342 686.207 399.639 689.022 399.17 696.626C398.744 703.531 397.306 719.232 396.781 722.701C396.651 723.558 396.515 724.874 396.479 725.625C396.421 726.829 395.549 726.978 389.071 726.89C385.033 726.835 376.729 726.351 370.617 725.815ZM573.758 662.634C574.605 662.004 574.962 661.5 574.552 661.514C574.141 661.529 573.111 662.054 572.264 662.683C571.417 663.313 571.059 663.817 571.47 663.803C571.881 663.788 572.911 663.264 573.758 662.634ZM280.532 711.394C279.877 710.978 279.699 710.638 280.135 710.638C280.572 710.638 281.465 710.978 282.12 711.394C282.774 711.81 282.953 712.15 282.516 712.15C282.08 712.15 281.187 711.81 280.532 711.394ZM420.671 580.165C420.97 579.396 421.413 578.963 421.658 579.203C421.902 579.443 421.658 580.072 421.116 580.601C420.332 581.366 420.241 581.276 420.671 580.165ZM99.0878 524.64C99.0891 518.636 99.2136 516.283 99.3647 519.411C99.5157 522.539 99.5147 527.451 99.3624 530.327C99.2102 533.204 99.0866 530.644 99.0878 524.64ZM89.9235 520.741C81.6567 499.79 75.2138 477.018 73.0459 461.089C67.7995 422.539 66.4962 381.555 69.8348 360.109C70.5024 355.821 71.2217 351.084 71.4332 349.583C72.4263 342.535 73.5054 338.116 74.9489 335.187C77.2815 330.453 84.2985 320.01 87.5732 316.4C89.1504 314.661 91.6749 311.754 93.1832 309.941C94.6915 308.128 96.7548 306.44 97.7683 306.19C99.1113 305.859 99.3925 305.477 98.805 304.782C98.2164 304.085 99.2168 302.795 102.514 299.998C104.997 297.892 107.607 295.642 108.314 294.999C115.88 288.117 141.781 275.505 148.348 275.505C152.706 275.505 152.177 274.544 146.307 271.797C143.191 270.339 140.147 268.735 139.542 268.232C134.949 264.414 128.142 257.775 128.142 257.112C128.142 256.667 127.091 255.313 125.806 254.104C123.464 251.9 121.345 246.318 119.485 237.453C117.85 229.668 118.213 227.993 123.075 220.846C131.678 208.203 152.433 182.51 154.249 182.255C154.514 182.218 155.445 181.867 156.318 181.476C158.754 180.383 179.522 180.635 180.68 181.772C181.206 182.289 182.123 182.713 182.718 182.713C184.299 182.713 192.386 186.561 195.606 188.845C199.591 191.672 206.91 199.174 208.305 201.863C208.96 203.124 209.91 204.588 210.417 205.117C210.923 205.645 211.857 207.575 212.491 209.405C213.125 211.236 214.073 213.962 214.598 215.463C216.754 221.633 216.96 233.39 215.041 240.805C214.708 242.092 214.226 243.495 213.971 243.924C213.715 244.353 213.459 245.055 213.401 245.484C213.169 247.2 212.057 249.772 211.547 249.772C211.249 249.772 210.573 250.948 210.044 252.384C209.515 253.821 206.14 257.98 202.543 261.626C197.638 266.599 194.564 268.967 190.248 271.1C187.082 272.665 183.957 273.945 183.303 273.945C181.587 273.945 181.834 275.152 183.577 275.281C184.381 275.341 188.399 276.289 192.506 277.388C198.976 279.121 203.051 280.863 215.052 287.03C216.361 287.703 218.915 289.333 220.726 290.651C222.537 291.97 225.035 293.751 226.276 294.609C229.739 297.001 240.087 306.667 243.391 310.594C249.1 317.38 250.372 319 250.372 319.49C250.372 319.762 244.746 322.721 237.871 326.067C206.626 341.269 181.94 358.339 159.882 379.993C117.59 421.511 95.8848 469.153 93.8043 525.03L93.6156 530.098L89.9235 520.741ZM76.1433 340.615L76.6416 338.276L75.4339 340.225C74.0911 342.393 73.7113 344.897 74.9075 343.695C75.3131 343.288 75.8692 341.902 76.1433 340.615ZM107.607 299.872C108.594 298.636 108.566 298.608 107.307 299.578C106.543 300.167 105.918 300.781 105.918 300.943C105.918 301.584 106.57 301.171 107.607 299.872ZM122.342 227.369C122.141 226.61 121.963 227.042 121.947 228.329C121.93 229.615 122.095 230.236 122.313 229.708C122.53 229.18 122.543 228.128 122.342 227.369ZM701.987 524.073C701.987 512.117 699.538 494.289 695.96 480.193C686.695 443.701 666.402 409.723 636.118 379.993C614.001 358.281 589.342 341.245 557.931 325.976C550.946 322.581 545.098 319.676 544.935 319.522C544.659 319.259 554.86 306.785 556.068 305.907C556.953 305.264 565.672 297.836 567.041 296.558C569.566 294.203 580.057 287.713 585.977 284.845C592.998 281.443 602.468 278.137 607.338 277.385C609.194 277.099 610.711 276.647 610.711 276.38C610.71 276.113 608.346 274.842 605.458 273.555C602.57 272.269 599.445 270.605 598.514 269.859C594.127 266.341 586.901 259.479 586.901 258.831C586.901 258.433 586.068 257.021 585.05 255.694C581.986 251.699 579.21 245.028 578.206 239.246C576.925 231.872 577.352 221.443 579.123 216.827C579.905 214.79 580.387 213.123 580.194 213.123C580.001 213.123 581.074 210.984 582.578 208.37C584.083 205.756 585.313 203.299 585.313 202.912C585.313 202.524 585.67 202.207 586.107 202.207C586.544 202.207 586.901 201.839 586.901 201.389C586.901 200.939 589.049 198.55 591.674 196.08C598.111 190.025 607.38 184.632 612.696 183.848C613.132 183.784 614.204 183.415 615.077 183.027C617.572 181.92 638.247 182.16 639.417 183.31C639.956 183.839 641.075 184.272 641.904 184.272C643.64 184.272 648.809 189.047 648.809 190.65C648.809 191.241 649.572 192.241 650.503 192.872C653.177 194.682 654.836 196.563 661.836 205.716C675.382 223.427 675.086 222.885 675.059 229.922C675.033 236.785 674.861 238.239 673.399 243.924C670.771 254.144 659.435 267.497 649.007 272.657C645.841 274.223 642.716 275.505 642.062 275.505C640.346 275.505 640.593 276.712 642.336 276.841C643.14 276.9 647.158 277.848 651.265 278.948C657.735 280.68 661.81 282.423 673.811 288.589C675.121 289.262 677.674 290.892 679.485 292.211C681.296 293.53 683.796 295.296 685.041 296.135C688.27 298.314 704.32 313.94 704.346 314.932C704.358 315.388 705.44 316.769 706.75 318.002C708.059 319.234 709.131 320.629 709.131 321.101C709.131 321.573 710.188 323.174 711.479 324.659C712.771 326.144 713.843 327.798 713.861 328.334C713.879 328.87 714.169 329.308 714.507 329.308C714.844 329.308 716.891 332.73 719.054 336.911C721.218 341.093 723.238 344.694 723.543 344.915C724.349 345.499 726.507 361.245 727.817 376.094C731.457 417.354 726.273 461.05 712.924 501.637C709.375 512.425 703.178 528.783 702.314 529.643C702.134 529.822 701.987 527.315 701.987 524.073ZM99.7685 507.485C99.7772 505.77 99.9399 505.16 100.13 506.13C100.32 507.1 100.312 508.503 100.114 509.249C99.9152 509.994 99.7597 509.201 99.7685 507.485ZM263.824 480.442C250.421 478.902 233.563 473.854 225.767 469.046C224.239 468.104 222.706 467.332 222.36 467.33C222.014 467.329 221.3 466.96 220.773 466.511C220.245 466.061 217.85 464.278 215.449 462.547C207.216 456.613 197.65 445.43 194.86 438.476C194.257 436.975 193.464 435.413 193.098 435.006C192.731 434.598 192.431 433.479 192.431 432.518C192.431 431.557 192.111 430.575 191.719 430.337C191.1 429.962 190.153 423.544 189.655 416.347C189.57 415.113 189.827 412.481 190.228 410.499C190.629 408.517 191.036 406.494 191.133 406.004C191.433 404.484 208.212 389.992 218.284 382.553C229.956 373.932 245.457 364.491 258.493 358.063L268.23 353.262L280.929 353.757C291.472 354.168 295.111 354.645 302.359 356.568C313.65 359.564 318.726 361.263 320.28 362.567C320.969 363.145 322.047 363.618 322.675 363.618C323.303 363.618 325.131 364.496 326.737 365.568C328.343 366.64 329.893 367.517 330.18 367.517C330.468 367.517 331.673 368.307 332.859 369.272C334.044 370.237 336.06 371.805 337.339 372.758C344.003 377.723 354.346 389.121 354.346 391.501C354.346 391.962 354.622 392.457 354.958 392.6C356.205 393.13 360.21 403.791 361.121 409.005C362.635 417.678 361.382 429.235 358.227 435.698C357.402 437.387 356.727 439.055 356.727 439.406C356.727 439.756 355.08 442.409 353.067 445.302C348.996 451.152 337.398 462.492 333.23 464.697C331.748 465.481 330.535 466.393 330.535 466.725C330.535 467.056 330.048 467.327 329.452 467.327C328.856 467.327 327.488 468.007 326.413 468.838C325.337 469.67 323.518 470.581 322.37 470.864C321.222 471.147 319.867 471.871 319.359 472.472C318.851 473.073 317.429 473.565 316.198 473.565C314.968 473.565 313.767 473.874 313.53 474.251C313.031 475.045 306.984 477.015 302.359 477.892C300.613 478.223 298.827 478.581 298.39 478.687C289.865 480.758 273.71 481.578 263.824 480.442ZM308.097 473.094C307.833 472.835 307.148 472.807 306.575 473.033C305.942 473.282 306.13 473.466 307.055 473.504C307.892 473.538 308.36 473.353 308.097 473.094ZM521.714 481.001C521.532 480.823 519.427 480.624 517.036 480.56C509.381 480.355 495.904 477.485 489.672 474.733C488.363 474.154 485.863 473.074 484.116 472.332C482.37 471.59 479.513 470.08 477.767 468.976C473.043 465.99 471.583 465.132 469.83 464.313C465.951 462.501 449.59 443.798 449.59 441.176C449.59 440.819 448.866 439.059 447.982 437.263C444.733 430.67 442.987 417.082 444.428 409.612C444.633 408.547 445.013 406.622 445.27 405.336C446.281 400.295 450.041 391.839 453.419 387.011C458.246 380.113 473.844 365.178 476.222 365.178C477.125 365.178 486.569 361.157 491.05 358.865C491.809 358.477 493.127 358.16 493.98 358.16C494.833 358.16 495.728 357.848 495.968 357.466C496.208 357.085 497.747 356.56 499.388 356.301C505.714 355.301 507.249 355.032 510.77 354.305C512.77 353.892 517.592 353.626 521.485 353.713C528.322 353.866 528.875 354.02 537.691 358.235C556.486 367.22 579.025 382.264 595.235 396.642C599.6 400.515 603.448 403.905 603.785 404.176C605.795 405.793 605.647 429.013 603.609 431.848C602.751 433.041 600.245 439.949 600.535 440.322C600.675 440.503 600.251 441.302 599.591 442.098C598.931 442.893 597.764 444.662 596.997 446.029C594.245 450.929 583.38 462.024 577.773 465.659C576.027 466.791 573.066 468.848 571.193 470.23C569.32 471.612 566.284 473.115 564.447 473.57C562.609 474.026 558.605 475.24 555.549 476.268C546.753 479.228 540.336 480.43 530.86 480.894C526.011 481.132 521.896 481.18 521.714 481.001ZM292.088 302.602C292.236 301.208 292.759 295.33 293.251 289.541C293.743 283.751 294.651 277.697 295.27 276.087C295.889 274.478 296.44 272.899 296.496 272.578C296.551 272.258 296.911 271.183 297.295 270.191C297.679 269.198 297.994 268.023 297.994 267.58C297.994 266.336 307.91 246.749 310.759 242.365C315.642 234.852 318.173 231.397 323.326 225.21C326.183 221.779 328.768 218.792 329.07 218.573C329.955 217.93 338.674 210.502 340.043 209.225C342.568 206.869 353.058 200.379 358.979 197.511C366 194.11 375.469 190.803 380.34 190.051C382.195 189.765 383.713 189.281 383.713 188.976C383.713 188.67 382.279 187.956 380.527 187.387C378.775 186.819 376.945 185.886 376.461 185.313C375.978 184.741 375.163 184.272 374.65 184.272C374.137 184.272 372.892 183.658 371.882 182.908C368.378 180.304 359.902 172.105 359.902 171.32C359.902 170.886 359.223 169.815 358.394 168.94C351.639 161.817 348.144 139.835 352.122 129.494C352.905 127.456 353.388 125.79 353.196 125.79C353.003 125.79 354.076 123.651 355.58 121.036C357.084 118.422 358.315 115.965 358.315 115.578C358.315 115.19 358.672 114.873 359.109 114.873C359.545 114.873 359.902 114.511 359.902 114.069C359.902 112.033 374.564 100.057 377.057 100.057C377.555 100.057 378.372 99.5733 378.872 98.9817C379.638 98.0743 382.223 97.1486 385.698 96.5373C386.134 96.4605 387.206 96.0807 388.079 95.6933C390.528 94.6062 411.288 94.8656 412.44 95.9976C412.967 96.515 413.884 96.9383 414.479 96.9383C418.067 96.9383 427.849 102.993 434.623 109.407C438.718 113.284 444.853 122.966 445.389 126.398C445.639 127.993 446.187 129.956 446.607 130.76C447.649 132.754 447.941 135.236 447.995 142.555C448.06 151.302 446.912 156.996 443.593 164.398C441.678 168.668 433.535 178.67 433.076 177.315C432.919 176.853 432.425 176.474 431.978 176.474C431.531 176.474 431.365 176.985 431.608 177.609C432.18 179.073 427.79 182.44 420.832 185.873C417.893 187.324 415.75 188.756 416.07 189.056C416.39 189.357 420.045 190.505 424.192 191.608C430.728 193.346 434.796 195.081 446.812 201.256C448.122 201.928 450.675 203.558 452.486 204.877C454.297 206.196 456.798 207.962 458.042 208.802C461.271 210.98 477.321 226.607 477.348 227.598C477.359 228.054 478.441 229.436 479.751 230.668C481.06 231.901 482.132 233.296 482.132 233.768C482.132 234.24 483.189 235.841 484.481 237.326C485.773 238.811 486.844 240.464 486.862 241C486.881 241.536 487.17 241.975 487.508 241.975C487.845 241.975 489.892 245.396 492.056 249.578C494.219 253.759 496.21 257.356 496.479 257.57C496.748 257.784 497.23 259.009 497.55 260.292C497.87 261.574 498.5 262.847 498.95 263.12C500.058 263.793 504.88 304.061 503.964 304.992C503.831 305.127 499.132 303.996 493.522 302.478C463.535 294.363 434.049 290.739 398 290.739C361.995 290.739 329.705 294.758 301.17 302.79C296.587 304.08 292.608 305.136 292.328 305.136C292.048 305.136 291.94 303.995 292.088 302.602ZM435.627 115.458C434.593 113.673 432.686 111.754 431.946 111.754C431.07 111.754 434.625 116.327 435.549 116.389C435.902 116.413 435.937 115.994 435.627 115.458Z" fill="#4A3AFF"/>
</svg>
