<svg width="320" height="321" viewBox="0 0 320 321" fill="none" xmlns="http://www.w3.org/2000/svg">
<path d="M313.46 146.485C316.491 184.365 306.693 222.151 285.823 253.073C264.953 283.995 234.374 306.033 199.564 315.238C164.755 324.444 127.989 320.215 95.8537 303.31C63.7185 286.406 38.3139 257.929 24.1911 222.982C10.0682 188.036 8.1501 148.903 18.7803 112.594C29.4104 76.2849 51.8942 45.1729 82.2037 24.8315C112.513 4.49022 148.668 -3.75123 184.19 1.58366C219.713 6.91856 252.282 25.4812 276.063 53.946" fill="white"/>
<path d="M153.166 0.312994C148.294 0.952641 143.339 0.903824 138.446 1.54733C129.361 2.74185 120.311 4.82752 111.566 7.54534C97.9309 11.7825 84.8836 18.1249 72.8456 25.7602C70.4232 27.2966 67.8008 28.619 65.4856 30.3081C62.1327 32.7542 59.0112 35.7494 55.8856 38.4861C48.2154 45.202 41.1429 52.3658 34.7656 60.3372C30.7421 65.3664 26.7007 70.133 23.3905 75.6972C1.2405 112.93 -5.69559 157.853 4.80558 199.857C8.0494 212.832 13.2235 225.172 19.4411 236.977C20.6058 239.188 21.372 241.546 22.6708 243.697C25.0577 247.65 28.0413 251.211 30.8061 254.897C40.0816 267.265 50.8444 278.604 63.2456 287.891C81.3142 301.421 101.841 310.751 123.726 316.059C141.354 320.334 160.467 321.491 178.446 319.127C184.029 318.393 189.553 317.452 195.086 316.421C198.322 315.818 201.519 315.461 204.686 314.507C211.104 312.573 217.155 309.909 223.246 307.155C243.853 297.838 262.045 285.086 277.873 268.936C279.378 267.401 280.536 265.522 281.889 263.857C285.037 259.985 288.133 256.107 290.996 252.017C302.571 235.48 311.096 216.664 315.614 196.977C316.707 192.216 317.931 187.435 318.514 182.577C321.181 160.349 319.915 137.968 313.887 116.337C299.198 63.6254 256.452 21.4093 204.046 6.35031C192.162 2.93559 180.17 1.30981 167.886 0.468561C163.106 0.141254 157.942 -0.314068 153.166 0.312994ZM160.846 2.5284C165.636 1.60309 167.527 8.69728 162.765 9.85287C157.981 11.0139 155.835 3.49618 160.846 2.5284ZM261.966 54.577C260.343 54.1217 259.364 52.8782 258.126 51.7884C255.923 49.8504 253.718 47.8782 251.406 46.0728C244.059 40.3375 236.345 34.9437 228.046 30.6598C193.81 12.9893 153.584 8.87851 116.686 20.3452C102.764 24.6714 89.2799 31.0287 77.3256 39.4057C72.7759 42.5938 68.4255 45.9828 64.2056 49.5916C62.3043 51.2175 60.2344 53.8953 57.8056 54.577C57.6723 52.9864 58.6195 52.1353 59.7258 51.0696C61.4492 49.4097 63.3387 47.8898 65.1656 46.345C73.5421 39.2616 82.8796 33.1611 92.6856 28.258C132.996 8.10268 182.787 6.25106 223.566 26.4963C234.292 31.8217 244.327 38.0034 253.646 45.5543C255.819 47.3155 258.03 49.1287 260.045 51.0696C261.152 52.1353 262.099 52.9864 261.966 54.577ZM205.006 123.057C199.212 122.202 193.527 119.86 187.726 118.773C176.06 116.587 164.065 115.831 152.206 116.35C143.508 116.731 134.784 118.106 126.286 119.993C122.438 120.847 118.65 122.484 114.766 123.057C114.437 120.756 114.801 118.317 115.032 116.017C115.502 111.309 116.072 106.636 116.636 101.937C118.156 89.2729 121.034 76.5431 125.215 64.4972C127.77 57.1392 130.659 49.6159 134.926 43.0572C140.62 34.3051 148.425 24.6799 159.886 24.6799C171.479 24.6799 179.338 34.5264 185.055 43.3772C189.156 49.7259 192.018 57.0509 194.447 64.1772C198.452 75.9318 201.169 88.0466 202.901 100.337C203.637 105.559 204.329 110.761 204.714 116.017C204.885 118.346 205.266 120.722 205.006 123.057ZM39.5658 220.337H38.6058C35.5527 212.994 32.5336 205.797 29.9648 198.257C29.2357 196.118 28.146 194.06 27.6221 191.857C25.7557 184.01 25.1843 175.557 24.8332 167.537C24.6015 162.247 24.1909 156.846 24.5544 151.537C26.1886 127.673 34.6157 104.145 47.886 84.3372C53.8899 75.3754 61.0242 67.2327 69.0058 59.9933C70.9006 58.2747 72.8288 56.5893 74.7657 54.918C75.7957 54.0292 77.2475 52.6785 78.6057 52.3589C80.0507 52.0191 81.9139 53.5582 83.0858 54.2619C87.495 56.9096 91.1876 60.9925 94.1509 65.1372C103.127 77.6914 108.445 92.9768 111.502 108.017C112.195 111.427 112.959 114.807 113.444 118.257C113.623 119.528 114.15 121.125 113.888 122.4C113.603 123.789 112.062 124.048 110.926 124.473C108.252 125.474 105.562 126.444 102.926 127.541C92.6778 131.806 82.8077 137.587 74.1257 144.498C57.4636 157.763 44.2559 176.388 40.4023 197.617C39.061 205.007 39.5658 212.849 39.5658 220.337ZM282.126 218.417L281.486 217.777L280.526 220.337C279.699 218.362 280.526 215.149 280.526 212.977C280.526 207.893 280.336 202.954 279.43 197.937C276.48 181.612 268.047 166.793 256.817 154.737C247.199 144.412 235.265 136.305 222.606 130.18C218.851 128.363 215.011 126.73 211.086 125.314C209.586 124.774 207.609 124.789 206.986 123.051C206.519 121.748 207.165 120.206 207.377 118.897C207.918 115.564 208.627 112.287 209.294 108.977C212.295 94.088 217.849 78.665 226.967 66.4172C229.965 62.3909 233.639 58.7098 237.965 56.1281C239.166 55.411 240.282 53.7559 241.811 54.0774C243.227 54.3753 244.514 55.5386 245.646 56.3787C247.871 58.0314 250.006 59.7247 252.046 61.6011C253.171 62.636 254.462 63.4398 255.566 64.5031C261.464 70.1871 266.535 76.7294 271.291 83.3772C291.946 112.252 299.118 150.175 292.87 184.817C291.731 191.131 290.242 197.655 288.066 203.697C286.277 208.668 283.823 213.433 282.126 218.417ZM81.1658 55.2172L80.8457 55.8572H81.4857L81.1658 55.2172ZM51.7257 59.3772L52.6857 60.0172L47.066 67.0572L43.4057 70.8972C43.0331 69.0863 43.9012 68.114 45.006 66.7372C47.0083 64.2419 49.1095 61.2356 51.7257 59.3772ZM268.366 59.3772C270.535 61.5925 272.557 64.0077 274.508 66.4172C275.685 67.8701 276.765 68.9567 276.366 70.8972L272.705 67.0572L267.086 60.0172L268.366 59.3772ZM38.6057 76.3372C38.9819 77.9788 38.0947 79.1432 37.2159 80.4972C35.8414 82.6147 34.5586 84.7923 33.1657 86.8972C31.657 85.8862 32.4928 84.7083 33.2566 83.3772C34.5957 81.0438 36.1966 77.647 38.6057 76.3372ZM286.606 86.8972C285.213 84.7923 283.93 82.6147 282.556 80.4972C281.677 79.1432 280.79 77.9789 281.166 76.3372C283.596 77.6584 285.144 81.0519 286.541 83.3772C287.336 84.702 288.112 85.8886 286.606 86.8972ZM24.5255 103.857C22.5238 101.872 25.7936 97.3166 26.8445 95.2172C27.2191 94.4691 27.7393 92.8 28.705 92.632C29.3169 92.5255 29.4603 93.1754 29.3942 93.6362C29.2373 94.7301 28.4483 95.8394 27.9675 96.8172C27.5018 97.7644 27.1059 98.7383 26.6668 99.6972C26.0164 101.118 25.407 102.568 24.5255 103.857ZM295.566 103.857C293.382 101.951 292.441 98.119 291.165 95.5372C290.912 95.0263 289.635 92.8606 290.839 92.632C291.89 92.4325 292.584 94.533 292.927 95.2172C294.085 97.5317 296.847 101.345 295.566 103.857ZM19.4055 118.897L18.1255 118.577C18.2792 115.214 19.9042 111.365 21.3255 108.337C22.8143 108.836 22.3813 109.943 21.9653 111.217C21.1307 113.773 20.3659 116.389 19.4055 118.897ZM298.446 108.337C299.867 111.365 301.492 115.214 301.646 118.577L300.366 118.897C299.405 116.389 298.64 113.773 297.806 111.217C297.39 109.943 296.957 108.836 298.446 108.337ZM216.206 113.137V114.097H216.526L216.206 113.137ZM16.2054 132.977C14.3492 132.667 14.668 131.32 14.9928 129.777C15.4858 127.436 16.2063 125.107 16.5254 122.737C18.4185 123.054 17.9782 124.413 17.6052 125.937C17.0418 128.239 16.3936 130.612 16.2054 132.977ZM303.245 122.737C303.564 125.107 304.285 127.436 304.778 129.777C305.103 131.32 305.422 132.667 303.565 132.977C303.377 130.612 302.729 128.239 302.166 125.937C301.793 124.413 301.352 123.053 303.245 122.737ZM159.886 127.4C200.02 127.4 242.776 146.275 261.405 183.537C263.947 188.623 265.906 194.02 267.286 199.537C268.985 206.335 269.49 213.046 269.33 220.017C269.134 228.593 267.767 238.008 264.265 245.937C262.889 249.053 259.576 251.647 257.193 253.992C252.627 258.484 248.176 262.909 243.086 266.849C219.593 285.033 189.825 296.075 159.886 295.392C144.213 295.034 128.372 292.828 113.486 287.635C110.072 286.444 106.849 284.66 103.566 283.156C93.7583 278.665 84.5248 273.026 76.0456 266.35C70.4217 261.922 65.007 257.073 60.2742 251.697C58.5908 249.785 56.3907 247.936 55.2604 245.617C51.3328 237.561 50.7742 228.448 50.4332 219.697C50.1653 212.82 50.8562 205.902 52.5671 199.217C62.1761 161.669 97.7733 137.065 134.286 129.601C142.551 127.911 151.47 127.4 159.886 127.4ZM13.6456 148.337C12.4527 147.644 12.6443 146.745 12.6824 145.457C12.75 143.167 12.9792 140.61 13.6456 138.417C15.1443 139.02 14.9357 140.184 14.7411 141.617C14.4396 143.839 14.5216 146.261 13.6456 148.337ZM306.126 138.417C306.792 140.61 307.021 143.167 307.089 145.457C307.127 146.745 307.319 147.644 306.126 148.337C305.25 146.261 305.332 143.839 305.03 141.617C304.835 140.184 304.627 139.02 306.126 138.417ZM12.0456 164.977V155.377L13.454 156.119L13.6455 162.097L13.454 164.236L12.0456 164.977ZM307.726 155.377V164.977L306.317 164.236L306.126 162.097L306.317 156.119L307.726 155.377ZM13.6456 172.017L14.4216 176.497L14.874 180.622L13.6456 181.937C12.9792 179.744 12.75 177.188 12.6824 174.897C12.6443 173.609 12.4528 172.71 13.6456 172.017ZM306.126 181.937C304.627 181.335 304.835 180.171 305.03 178.737C305.334 176.5 305.33 174.142 306.126 172.017C307.318 172.71 307.127 173.609 307.089 174.897C307.021 177.188 306.792 179.744 306.126 181.937ZM16.2056 187.377C16.3938 189.743 17.042 192.115 17.6053 194.417C17.9784 195.941 18.4187 197.301 16.5256 197.617C16.2066 195.248 15.4859 192.918 14.993 190.577C14.6681 189.035 14.3494 187.687 16.2056 187.377ZM303.246 197.617C301.352 197.301 301.793 195.941 302.166 194.417C302.729 192.115 303.377 189.743 303.566 187.377C305.422 187.687 305.103 189.035 304.778 190.577C304.285 192.918 303.565 195.248 303.246 197.617ZM19.4056 201.457C20.366 203.965 21.1308 206.581 21.9653 209.137C22.3813 210.411 22.8143 211.518 21.3256 212.017C19.9042 208.989 18.2792 205.14 18.1256 201.777L19.4056 201.457ZM301.646 201.777C301.492 205.14 299.867 208.989 298.446 212.017C296.957 211.518 297.39 210.411 297.806 209.137C298.64 206.581 299.405 203.965 300.366 201.457L301.646 201.777ZM24.5256 216.497C25.4071 217.787 26.0164 219.237 26.6668 220.657C27.1059 221.616 27.5019 222.59 27.9675 223.537C28.4483 224.515 29.2373 225.624 29.3942 226.718C29.4603 227.179 29.317 227.829 28.7051 227.723C27.7393 227.554 27.2191 225.885 26.8446 225.137C25.7936 223.038 22.5239 218.482 24.5256 216.497ZM295.566 216.497C296.847 219.009 294.085 222.823 292.927 225.137C292.584 225.822 291.89 227.922 290.839 227.723C289.635 227.494 290.912 225.328 291.165 224.817C292.441 222.235 293.382 218.403 295.566 216.497ZM33.1656 233.457C34.5584 235.562 35.8412 237.74 37.2157 239.857C38.0946 241.211 38.9817 242.376 38.6056 244.017C36.1964 242.708 34.5955 239.311 33.2564 236.977C32.4926 235.646 31.6568 234.468 33.1656 233.457ZM281.166 244.017C280.79 242.376 281.677 241.211 282.555 239.857C283.93 237.74 285.213 235.562 286.606 233.457C288.112 234.466 287.336 235.653 286.541 236.977C285.144 239.303 283.596 242.696 281.166 244.017ZM52.6858 260.337L51.7258 260.977H51.4058C49.2362 258.762 47.2145 256.347 45.263 253.937C44.0864 252.484 43.0065 251.398 43.4058 249.457L47.066 253.297L52.6858 260.337ZM276.366 249.457C276.765 251.398 275.685 252.484 274.508 253.937C272.557 256.347 270.535 258.762 268.366 260.977H268.046L267.086 260.337L272.705 253.297L276.366 249.457ZM261.966 265.777C262.099 267.368 261.152 268.219 260.045 269.285C258.322 270.945 256.433 272.465 254.606 274.009C246.229 281.093 236.892 287.193 227.086 292.096C186.744 312.267 137.35 314.086 96.5256 294.015C85.6691 288.678 75.5385 282.427 66.1257 274.8C63.9522 273.039 61.741 271.226 59.7259 269.285C58.6195 268.219 57.6724 267.368 57.8056 265.777C60.2344 266.459 62.3044 269.137 64.2056 270.763C68.3265 274.287 72.5696 277.6 77.0056 280.723C89.0365 289.193 102.654 295.649 116.686 300.009C153.528 311.459 193.857 307.341 228.046 289.695C236.346 285.411 244.06 280.017 251.406 274.281C253.718 272.476 255.923 270.504 258.126 268.566C259.364 267.476 260.343 266.233 261.966 265.777ZM230.286 267.057L229.646 267.378V267.698L230.286 267.057ZM161.806 310.41C166.65 310.238 166.727 317.739 161.806 317.895C156.726 318.056 156.798 310.587 161.806 310.41Z" fill="#170F49"/>
</svg>
