<svg width="320" height="385" viewBox="0 0 320 385" fill="none" xmlns="http://www.w3.org/2000/svg">
<g clip-path="url(#clip0_265_645)">
<path d="M313.46 146.027C316.491 183.789 306.693 221.456 285.823 252.282C264.953 283.107 234.374 305.076 199.564 314.253C164.755 323.43 127.989 319.214 95.8537 302.363C63.7185 285.511 38.3139 257.123 24.1911 222.286C10.0682 187.448 8.1501 148.437 18.7803 112.242C29.4104 76.0465 51.8942 45.0317 82.2037 24.7539C112.513 4.47619 148.668 -3.73951 184.19 1.57871C219.713 6.89693 252.282 25.4016 276.063 53.7774" fill="white"/>
<path d="M153.13 0.245611C148.259 0.885258 143.304 0.836441 138.41 1.47994C129.326 2.67446 120.276 4.76014 111.53 7.47796C97.8958 11.7151 84.8485 18.0575 72.8104 25.6928C70.388 27.2293 67.7657 28.5516 65.4504 30.2407C62.0975 32.6868 58.976 35.682 55.8504 38.4187C48.1802 45.1346 41.1077 52.2984 34.7304 60.2698C30.7069 65.299 26.6655 70.0656 23.3554 75.6298C1.20534 112.862 -5.73075 157.785 4.77042 199.79C8.01424 212.765 13.1884 225.105 19.406 236.91C20.5706 239.121 21.3368 241.479 22.6356 243.63C25.0226 247.583 28.0061 251.143 30.7709 254.83C40.0464 267.197 50.8092 278.537 63.2104 287.823C81.2791 301.354 101.805 310.683 123.69 315.991C141.319 320.267 160.432 321.424 178.41 319.06C183.994 318.326 189.518 317.384 195.05 316.353C198.287 315.75 201.484 315.393 204.65 314.439C211.069 312.506 217.12 309.841 223.21 307.088C243.818 297.771 262.01 285.018 277.838 268.869C279.343 267.333 280.501 265.455 281.854 263.79C285.002 259.918 288.098 256.039 290.961 251.95C302.536 235.413 311.061 216.596 315.579 196.91C316.672 192.148 317.896 187.367 318.479 182.51C321.146 160.281 319.88 137.901 313.852 116.27C299.162 63.558 256.416 21.342 204.01 6.28293C192.127 2.8682 180.135 1.24243 167.85 0.401178C163.071 0.0738713 157.907 -0.381451 153.13 0.245611ZM160.81 2.46101C165.601 1.53571 167.492 8.6299 162.73 9.78549C157.946 10.9465 155.8 3.4288 160.81 2.46101ZM261.93 54.5097C260.308 54.0543 259.329 52.8108 258.09 51.7211C255.888 49.783 253.683 47.8109 251.37 46.0055C244.024 40.2701 236.31 34.8763 228.01 30.5924C193.774 12.9219 153.549 8.81113 116.65 20.2778C102.729 24.604 89.2448 30.9613 77.2904 39.3383C72.7408 42.5264 68.3904 45.9154 64.1704 49.5242C62.2692 51.1501 60.1992 53.8279 57.7704 54.5097C57.6371 52.919 58.5843 52.0679 59.6907 51.0022C61.414 49.3423 63.3035 47.8224 65.1304 46.2776C73.5069 39.1943 82.8444 33.0937 92.6504 28.1906C132.961 8.0353 182.752 6.18368 223.53 26.4289C234.257 31.7543 244.292 37.936 253.61 45.4869C255.784 47.2482 257.995 49.0613 260.01 51.0022C261.116 52.0679 262.064 52.919 261.93 54.5097ZM204.97 122.99C199.177 122.134 193.492 119.792 187.69 118.705C176.025 116.52 164.03 115.763 152.17 116.282C143.473 116.663 134.749 118.038 126.25 119.926C122.403 120.78 118.615 122.416 114.73 122.99C114.402 120.689 114.766 118.25 114.996 115.95C115.467 111.242 116.037 106.568 116.601 101.87C118.121 89.2056 120.998 76.4757 125.18 64.4298C127.735 57.0718 130.623 49.5485 134.89 42.9898C140.584 34.2377 148.389 24.6126 159.85 24.6126C171.444 24.6126 179.303 34.459 185.02 43.3098C189.121 49.6585 191.983 56.9835 194.411 64.1098C198.417 75.8644 201.134 87.9792 202.866 100.27C203.602 105.491 204.293 110.693 204.679 115.95C204.85 118.279 205.231 120.654 204.97 122.99ZM39.5306 220.27H38.5706C35.5175 212.927 32.4985 205.729 29.9296 198.19C29.2006 196.05 28.1108 193.993 27.5869 191.79C25.7205 183.943 25.1492 175.489 24.798 167.47C24.5664 162.18 24.1557 156.779 24.5192 151.47C26.1534 127.606 34.5806 104.078 47.8509 84.2698C53.8548 75.308 60.9891 67.1653 68.9706 59.9259C70.8654 58.2073 72.7936 56.5219 74.7306 54.8506C75.7606 53.9619 77.2123 52.6111 78.5706 52.2915C80.0155 51.9518 81.8788 53.4908 83.0506 54.1945C87.4598 56.8422 91.1525 60.9251 94.1158 65.0698C103.091 77.624 108.41 92.9094 111.467 107.95C112.16 111.359 112.924 114.74 113.409 118.19C113.588 119.461 114.115 121.057 113.853 122.332C113.568 123.722 112.027 123.98 110.891 124.406C108.217 125.407 105.527 126.376 102.891 127.474C92.6427 131.738 82.7726 137.519 74.0906 144.431C57.4285 157.696 44.2207 176.32 40.3671 197.55C39.0258 204.939 39.5306 212.781 39.5306 220.27ZM282.091 218.35L281.451 217.71L280.491 220.27C279.663 218.294 280.491 215.081 280.491 212.91C280.491 207.826 280.301 202.887 279.395 197.87C276.445 181.545 268.012 166.725 256.782 154.67C247.164 144.344 235.23 136.238 222.571 130.113C218.816 128.296 214.976 126.662 211.051 125.247C209.551 124.706 207.574 124.721 206.951 122.984C206.484 121.68 207.13 120.138 207.342 118.83C207.883 115.497 208.591 112.219 209.258 108.91C212.26 94.0206 217.814 78.5976 226.932 66.3498C229.93 62.3235 233.604 58.6424 237.929 56.0607C239.131 55.3436 240.247 53.6885 241.776 54.0101C243.192 54.3079 244.479 55.4712 245.611 56.3113C247.836 57.964 249.971 59.6573 252.011 61.5338C253.136 62.5686 254.427 63.3724 255.531 64.4358C261.429 70.1197 266.5 76.662 271.256 83.3098C291.911 112.185 299.083 150.107 292.835 184.75C291.696 191.064 290.207 197.588 288.031 203.63C286.241 208.601 283.788 213.366 282.091 218.35ZM81.1306 55.1498L80.8106 55.7898H81.4506L81.1306 55.1498ZM51.6906 59.3098L52.6506 59.9498L47.0308 66.9898L43.3706 70.8298C42.998 69.0189 43.8661 68.0466 44.9708 66.6698C46.9731 64.1745 49.0743 61.1682 51.6906 59.3098ZM268.331 59.3098C270.5 61.5251 272.522 63.9403 274.473 66.3498C275.65 67.8027 276.73 68.8894 276.331 70.8298L272.67 66.9898L267.051 59.9498L268.331 59.3098ZM38.5706 76.2698C38.9468 77.9114 38.0596 79.0759 37.1807 80.4298C35.8062 82.5473 34.5234 84.7249 33.1306 86.8298C31.6219 85.8189 32.4576 84.6409 33.2214 83.3098C34.5605 80.9764 36.1614 77.5796 38.5706 76.2698ZM286.571 86.8298C285.178 84.7249 283.895 82.5473 282.52 80.4298C281.642 79.0759 280.754 77.9115 281.131 76.2698C283.561 77.591 285.109 80.9845 286.505 83.3098C287.301 84.6346 288.077 85.8212 286.571 86.8298ZM24.4904 103.79C22.4887 101.805 25.7584 97.2492 26.8094 95.1498C27.1839 94.4017 27.7041 92.7326 28.6699 92.5647C29.2818 92.4581 29.4251 93.108 29.359 93.5688C29.2021 94.6627 28.4131 95.772 27.9324 96.7498C27.4667 97.697 27.0707 98.6709 26.6316 99.6298C25.9813 101.05 25.3719 102.5 24.4904 103.79ZM295.53 103.79C293.346 101.884 292.406 98.0517 291.13 95.4698C290.877 94.9589 289.6 92.7932 290.803 92.5647C291.854 92.3651 292.549 94.4656 292.891 95.1498C294.05 97.4643 296.812 101.278 295.53 103.79ZM19.3704 118.83L18.0904 118.51C18.2441 115.147 19.869 111.298 21.2904 108.27C22.7791 108.769 22.3461 109.876 21.9301 111.15C21.0956 113.706 20.3307 116.322 19.3704 118.83ZM298.41 108.27C299.832 111.298 301.457 115.147 301.61 118.51L300.33 118.83C299.37 116.322 298.605 113.706 297.771 111.15C297.355 109.876 296.922 108.769 298.41 108.27ZM216.17 113.07V114.03H216.491L216.17 113.07ZM16.1702 132.91C14.3141 132.6 14.6328 131.252 14.9576 129.71C15.4506 127.369 16.1712 125.039 16.4902 122.67C18.3833 122.986 17.943 124.346 17.57 125.87C17.0066 128.172 16.3585 130.545 16.1702 132.91ZM303.21 122.67C303.529 125.039 304.25 127.369 304.743 129.71C305.067 131.252 305.386 132.6 303.53 132.91C303.342 130.545 302.694 128.172 302.13 125.87C301.757 124.346 301.317 122.986 303.21 122.67ZM159.85 127.333C199.985 127.333 242.741 146.207 261.369 183.47C263.912 188.556 265.871 193.952 267.25 199.47C268.95 206.268 269.455 212.979 269.295 219.95C269.099 228.526 267.731 237.941 264.23 245.87C262.854 248.985 259.541 251.58 257.158 253.924C252.592 258.417 248.14 262.842 243.05 266.782C219.558 284.966 189.79 296.008 159.85 295.324C144.178 294.966 128.337 292.76 113.45 287.567C110.037 286.377 106.814 284.592 103.53 283.089C93.7232 278.598 84.4897 272.959 76.0104 266.282C70.3866 261.854 64.9719 257.006 60.239 251.63C58.5556 249.718 56.3556 247.868 55.2252 245.55C51.2976 237.494 50.7391 228.381 50.3981 219.63C50.1301 212.753 50.8211 205.835 52.5319 199.15C62.141 161.602 97.7382 136.998 134.25 129.534C142.516 127.844 151.434 127.333 159.85 127.333ZM13.6104 148.27C12.4176 147.577 12.6092 146.678 12.6472 145.39C12.7148 143.099 12.9441 140.543 13.6104 138.35C15.1092 138.952 14.9005 140.116 14.706 141.55C14.4044 143.772 14.4865 146.194 13.6104 148.27ZM306.09 138.35C306.757 140.543 306.986 143.099 307.054 145.39C307.092 146.678 307.283 147.577 306.09 148.27C305.214 146.194 305.296 143.772 304.995 141.55C304.8 140.116 304.592 138.952 306.09 138.35ZM12.0104 164.91V155.31L13.4188 156.052L13.6104 162.03L13.4188 164.168L12.0104 164.91ZM307.69 155.31V164.91L306.282 164.168L306.09 162.03L306.282 156.052L307.69 155.31ZM13.6104 171.95L14.3865 176.43L14.8388 180.555L13.6104 181.87C12.9441 179.677 12.7148 177.12 12.6472 174.83C12.6092 173.542 12.4176 172.643 13.6104 171.95ZM306.09 181.87C304.592 181.267 304.8 180.103 304.995 178.67C305.298 176.433 305.295 174.075 306.09 171.95C307.283 172.643 307.092 173.542 307.054 174.83C306.986 177.12 306.757 179.677 306.09 181.87ZM16.1704 187.31C16.3586 189.675 17.0068 192.048 17.5702 194.35C17.9432 195.874 18.3835 197.234 16.4904 197.55C16.1714 195.181 15.4508 192.851 14.9578 190.51C14.633 188.967 14.3142 187.62 16.1704 187.31ZM303.21 197.55C301.317 197.233 301.758 195.874 302.131 194.35C302.694 192.048 303.342 189.675 303.53 187.31C305.387 187.62 305.068 188.967 304.743 190.51C304.25 192.851 303.529 195.181 303.21 197.55ZM19.3704 201.39C20.3308 203.898 21.0956 206.514 21.9302 209.07C22.3462 210.344 22.7792 211.451 21.2904 211.95C19.8691 208.922 18.2441 205.072 18.0904 201.71L19.3704 201.39ZM301.61 201.71C301.457 205.072 299.832 208.922 298.41 211.95C296.922 211.451 297.355 210.344 297.771 209.07C298.605 206.514 299.37 203.898 300.33 201.39L301.61 201.71ZM24.4904 216.43C25.3719 217.719 25.9813 219.17 26.6316 220.59C27.0707 221.549 27.4667 222.523 27.9324 223.47C28.4131 224.448 29.2022 225.557 29.359 226.651C29.4252 227.112 29.2819 227.762 28.6699 227.655C27.7042 227.487 27.1839 225.818 26.8094 225.07C25.7585 222.971 22.4887 218.415 24.4904 216.43ZM295.53 216.43C296.812 218.942 294.05 222.756 292.891 225.07C292.549 225.754 291.854 227.855 290.803 227.655C289.6 227.426 290.877 225.261 291.13 224.75C292.406 222.168 293.346 218.336 295.53 216.43ZM33.1304 233.39C34.5233 235.495 35.806 237.672 37.1805 239.79C38.0594 241.144 38.9466 242.308 38.5704 243.95C36.1613 242.64 34.5603 239.243 33.2213 236.91C32.4574 235.579 31.6217 234.401 33.1304 233.39ZM281.13 243.95C280.754 242.308 281.641 241.144 282.52 239.79C283.895 237.672 285.178 235.495 286.57 233.39C288.077 234.399 287.301 235.585 286.505 236.91C285.109 239.235 283.561 242.629 281.13 243.95ZM52.6506 260.27L51.6906 260.91H51.3706C49.201 258.695 47.1793 256.28 45.2279 253.87C44.0512 252.417 42.9714 251.33 43.3706 249.39L47.0309 253.23L52.6506 260.27ZM276.331 249.39C276.73 251.33 275.65 252.417 274.473 253.87C272.522 256.28 270.5 258.695 268.331 260.91H268.01L267.051 260.27L272.67 253.23L276.331 249.39ZM261.931 265.71C262.064 267.301 261.117 268.152 260.01 269.217C258.287 270.877 256.397 272.397 254.57 273.942C246.194 281.025 236.857 287.126 227.051 292.029C186.709 312.2 137.314 314.019 96.4905 293.948C85.6339 288.61 75.5034 282.36 66.0905 274.733C63.917 272.971 61.7059 271.158 59.6907 269.217C58.5844 268.152 57.6372 267.301 57.7705 265.71C60.1993 266.392 62.2692 269.069 64.1705 270.695C68.2913 274.219 72.5345 277.533 76.9705 280.656C89.0014 289.125 102.619 295.581 116.65 299.942C153.493 311.391 193.822 307.273 228.01 289.627C236.31 285.343 244.024 279.949 251.37 274.214C253.683 272.409 255.888 270.437 258.091 268.499C259.329 267.409 260.308 266.165 261.931 265.71ZM230.251 266.99L229.61 267.31V267.63L230.251 266.99ZM161.77 310.342C166.615 310.171 166.692 317.671 161.77 317.828C156.691 317.989 156.762 310.52 161.77 310.342Z" fill="#4A3AFF"/>
<path d="M34.7333 377V338.6H39.0533L53.56 369.187L67.9866 338.6H72.36V376.973H67.8533V349.027L54.8133 377H52.28L39.24 349.027V377H34.7333ZM88.0241 377.8C85.873 377.8 84.0686 377.409 82.6108 376.627C81.1708 375.827 80.0775 374.778 79.3308 373.48C78.6019 372.182 78.2375 370.76 78.2375 369.213C78.2375 367.702 78.5219 366.396 79.0908 365.293C79.6775 364.173 80.4953 363.249 81.5441 362.52C82.593 361.773 83.8464 361.187 85.3041 360.76C86.673 360.387 88.2019 360.067 89.8908 359.8C91.5975 359.516 93.3219 359.258 95.0641 359.027C96.8064 358.796 98.433 358.573 99.9441 358.36L98.2375 359.347C98.2908 356.787 97.7752 354.893 96.6908 353.667C95.6241 352.44 93.7752 351.827 91.1441 351.827C89.4019 351.827 87.873 352.227 86.5575 353.027C85.2597 353.809 84.3441 355.089 83.8108 356.867L79.3041 355.507C79.9975 352.982 81.3397 351 83.3308 349.56C85.3219 348.12 87.9441 347.4 91.1975 347.4C93.8108 347.4 96.0508 347.871 97.9175 348.813C99.8019 349.738 101.153 351.142 101.971 353.027C102.38 353.916 102.637 354.884 102.744 355.933C102.851 356.964 102.904 358.049 102.904 359.187V377H98.6908V370.093L99.6775 370.733C98.593 373.062 97.073 374.822 95.1175 376.013C93.1797 377.204 90.8152 377.8 88.0241 377.8ZM88.7441 373.827C90.4508 373.827 91.9264 373.524 93.1708 372.92C94.433 372.298 95.4464 371.489 96.2108 370.493C96.9752 369.48 97.473 368.378 97.7041 367.187C97.9708 366.298 98.113 365.311 98.1308 364.227C98.1664 363.124 98.1841 362.28 98.1841 361.693L99.8375 362.413C98.2908 362.627 96.7708 362.831 95.2775 363.027C93.7841 363.222 92.3708 363.436 91.0375 363.667C89.7041 363.88 88.5041 364.138 87.4375 364.44C86.6552 364.689 85.9175 365.009 85.2241 365.4C84.5486 365.791 83.9975 366.298 83.5708 366.92C83.1619 367.524 82.9575 368.28 82.9575 369.187C82.9575 369.969 83.153 370.716 83.5441 371.427C83.953 372.138 84.5752 372.716 85.4108 373.16C86.2641 373.604 87.3752 373.827 88.7441 373.827ZM120.717 377.773C117.286 377.773 114.469 377.027 112.264 375.533C110.077 374.022 108.735 371.916 108.237 369.213L113.091 368.44C113.482 370.004 114.38 371.249 115.784 372.173C117.189 373.08 118.931 373.533 121.011 373.533C122.984 373.533 124.531 373.124 125.651 372.307C126.771 371.489 127.331 370.378 127.331 368.973C127.331 368.156 127.144 367.498 126.771 367C126.397 366.484 125.624 366.004 124.451 365.56C123.295 365.116 121.544 364.582 119.197 363.96C116.655 363.284 114.655 362.582 113.197 361.853C111.74 361.124 110.7 360.28 110.077 359.32C109.455 358.36 109.144 357.196 109.144 355.827C109.144 354.138 109.606 352.662 110.531 351.4C111.455 350.12 112.744 349.133 114.397 348.44C116.069 347.747 118.006 347.4 120.211 347.4C122.397 347.4 124.353 347.747 126.077 348.44C127.802 349.133 129.189 350.12 130.237 351.4C131.304 352.662 131.935 354.138 132.131 355.827L127.277 356.707C127.046 355.16 126.3 353.942 125.037 353.053C123.793 352.164 122.184 351.693 120.211 351.64C118.344 351.569 116.824 351.898 115.651 352.627C114.495 353.356 113.917 354.342 113.917 355.587C113.917 356.28 114.131 356.876 114.557 357.373C115.002 357.871 115.811 358.342 116.984 358.787C118.175 359.231 119.9 359.738 122.157 360.307C124.7 360.947 126.7 361.649 128.157 362.413C129.633 363.16 130.682 364.049 131.304 365.08C131.926 366.093 132.237 367.347 132.237 368.84C132.237 371.613 131.215 373.8 129.171 375.4C127.126 376.982 124.309 377.773 120.717 377.773ZM150.252 377.8C147.336 377.8 144.856 377.151 142.812 375.853C140.785 374.538 139.239 372.733 138.172 370.44C137.105 368.147 136.554 365.533 136.519 362.6C136.554 359.596 137.114 356.956 138.199 354.68C139.301 352.387 140.874 350.6 142.919 349.32C144.963 348.04 147.425 347.4 150.305 347.4C153.345 347.4 155.959 348.147 158.145 349.64C160.35 351.133 161.825 353.178 162.572 355.773L157.879 357.187C157.274 355.516 156.288 354.218 154.919 353.293C153.568 352.369 152.012 351.907 150.252 351.907C148.279 351.907 146.652 352.369 145.372 353.293C144.092 354.2 143.141 355.462 142.519 357.08C141.896 358.68 141.576 360.52 141.559 362.6C141.594 365.8 142.332 368.387 143.772 370.36C145.23 372.316 147.39 373.293 150.252 373.293C152.136 373.293 153.701 372.867 154.945 372.013C156.19 371.142 157.132 369.889 157.772 368.253L162.572 369.507C161.576 372.191 160.021 374.244 157.905 375.667C155.79 377.089 153.239 377.8 150.252 377.8ZM179.5 377.8C176.638 377.8 174.167 377.151 172.087 375.853C170.024 374.556 168.433 372.76 167.313 370.467C166.193 368.173 165.633 365.542 165.633 362.573C165.633 359.551 166.202 356.902 167.34 354.627C168.478 352.351 170.087 350.582 172.167 349.32C174.247 348.04 176.691 347.4 179.5 347.4C182.38 347.4 184.86 348.049 186.94 349.347C189.02 350.627 190.611 352.413 191.713 354.707C192.833 356.982 193.393 359.604 193.393 362.573C193.393 365.578 192.833 368.227 191.713 370.52C190.593 372.796 188.993 374.582 186.913 375.88C184.833 377.16 182.362 377.8 179.5 377.8ZM179.5 373.293C182.487 373.293 184.709 372.298 186.167 370.307C187.624 368.316 188.353 365.738 188.353 362.573C188.353 359.32 187.615 356.733 186.14 354.813C184.664 352.876 182.451 351.907 179.5 351.907C177.491 351.907 175.838 352.36 174.54 353.267C173.242 354.173 172.273 355.427 171.633 357.027C170.993 358.627 170.673 360.476 170.673 362.573C170.673 365.809 171.42 368.404 172.913 370.36C174.407 372.316 176.602 373.293 179.5 373.293ZM215.344 377C213.638 377.338 211.949 377.471 210.278 377.4C208.624 377.347 207.149 377.018 205.851 376.413C204.553 375.791 203.567 374.831 202.891 373.533C202.322 372.396 202.011 371.249 201.958 370.093C201.922 368.92 201.904 367.596 201.904 366.12V340.2H206.651V365.907C206.651 367.08 206.66 368.084 206.678 368.92C206.713 369.756 206.9 370.476 207.238 371.08C207.878 372.218 208.891 372.884 210.278 373.08C211.682 373.276 213.371 373.222 215.344 372.92V377ZM196.064 352.12V348.2H215.344V352.12H196.064ZM232.474 377.8C229.647 377.8 227.176 377.178 225.06 375.933C222.963 374.671 221.327 372.92 220.154 370.68C218.98 368.422 218.394 365.791 218.394 362.787C218.394 359.64 218.971 356.92 220.127 354.627C221.283 352.316 222.891 350.538 224.954 349.293C227.034 348.031 229.469 347.4 232.26 347.4C235.158 347.4 237.62 348.067 239.647 349.4C241.691 350.733 243.22 352.636 244.234 355.107C245.265 357.578 245.709 360.52 245.567 363.933H240.767V362.227C240.714 358.689 239.994 356.049 238.607 354.307C237.22 352.547 235.158 351.667 232.42 351.667C229.487 351.667 227.256 352.609 225.727 354.493C224.198 356.378 223.434 359.08 223.434 362.6C223.434 365.996 224.198 368.627 225.727 370.493C227.256 372.36 229.434 373.293 232.26 373.293C234.163 373.293 235.816 372.858 237.22 371.987C238.625 371.116 239.727 369.862 240.527 368.227L245.087 369.8C243.967 372.342 242.278 374.316 240.02 375.72C237.78 377.107 235.265 377.8 232.474 377.8ZM221.834 363.933V360.12H243.114V363.933H221.834ZM251.504 377V348.2H255.744V355.16L255.051 354.253C255.388 353.364 255.824 352.547 256.357 351.8C256.908 351.053 257.522 350.44 258.197 349.96C258.944 349.356 259.788 348.893 260.731 348.573C261.673 348.253 262.633 348.067 263.611 348.013C264.588 347.942 265.504 348.004 266.357 348.2V352.653C265.362 352.387 264.268 352.316 263.077 352.44C261.886 352.564 260.784 353 259.771 353.747C258.846 354.404 258.126 355.204 257.611 356.147C257.113 357.089 256.766 358.111 256.571 359.213C256.375 360.298 256.277 361.409 256.277 362.547V377H251.504ZM283.146 377.8C280.283 377.8 277.812 377.151 275.732 375.853C273.67 374.556 272.079 372.76 270.959 370.467C269.839 368.173 269.279 365.542 269.279 362.573C269.279 359.551 269.848 356.902 270.986 354.627C272.123 352.351 273.732 350.582 275.812 349.32C277.892 348.04 280.337 347.4 283.146 347.4C286.026 347.4 288.506 348.049 290.586 349.347C292.666 350.627 294.257 352.413 295.359 354.707C296.479 356.982 297.039 359.604 297.039 362.573C297.039 365.578 296.479 368.227 295.359 370.52C294.239 372.796 292.639 374.582 290.559 375.88C288.479 377.16 286.008 377.8 283.146 377.8ZM283.146 373.293C286.132 373.293 288.355 372.298 289.812 370.307C291.27 368.316 291.999 365.738 291.999 362.573C291.999 359.32 291.261 356.733 289.786 354.813C288.31 352.876 286.097 351.907 283.146 351.907C281.137 351.907 279.483 352.36 278.186 353.267C276.888 354.173 275.919 355.427 275.279 357.027C274.639 358.627 274.319 360.476 274.319 362.573C274.319 365.809 275.066 368.404 276.559 370.36C278.052 372.316 280.248 373.293 283.146 373.293Z" fill="#4A3AFF"/>
</g>
<defs>
<clipPath id="clip0_265_645">
<rect width="320" height="385" fill="white"/>
</clipPath>
</defs>
</svg>
