<svg width="24" height="24" viewBox="0 0 24 24" fill="none" xmlns="http://www.w3.org/2000/svg">
<path d="M6.99985 7C6.99985 7.55228 7.44756 8 7.99985 8C8.55213 8 8.99985 7.55228 8.99985 7H6.99985ZM8.99985 17C8.99985 16.4477 8.55213 16 7.99985 16C7.44756 16 6.99985 16.4477 6.99985 17H8.99985ZM9.09187 21.782L9.54586 20.891L9.54586 20.891L9.09187 21.782ZM8.21783 20.908L7.32683 21.362H7.32683L8.21783 20.908ZM19.7819 20.908L20.6729 21.362L19.7819 20.908ZM18.9078 21.782L18.4538 20.891L18.4538 20.891L18.9078 21.782ZM18.9078 2.21799L18.4538 3.10899V3.10899L18.9078 2.21799ZM19.7819 3.09202L18.8909 3.54601V3.54601L19.7819 3.09202ZM8.21783 3.09202L7.32683 2.63803V2.63803L8.21783 3.09202ZM9.09187 2.21799L8.63788 1.32698V1.32698L9.09187 2.21799ZM2.99985 11C2.44756 11 1.99985 11.4477 1.99985 12C1.99985 12.5523 2.44756 13 2.99985 13L2.99985 11ZM13.9998 13C14.5521 13 14.9998 12.5523 14.9998 12C14.9998 11.4477 14.5521 11 13.9998 11V13ZM5.70695 9.70711C6.09748 9.31658 6.09748 8.68342 5.70695 8.29289C5.31643 7.90237 4.68326 7.90237 4.29274 8.29289L5.70695 9.70711ZM3.13122 10.8686L2.42411 10.1615H2.42411L3.13122 10.8686ZM3.13122 13.1314L2.42411 13.8385L2.42411 13.8385L3.13122 13.1314ZM4.29274 15.7071C4.68327 16.0976 5.31643 16.0976 5.70696 15.7071C6.09748 15.3166 6.09748 14.6834 5.70696 14.2929L4.29274 15.7071ZM2.46301 11.691L3.41406 12L2.46301 11.691ZM2.46301 12.309L3.41406 12L2.46301 12.309ZM8.99985 7V5.2H6.99985V7H8.99985ZM11.1998 3H16.7998V1H11.1998V3ZM18.9998 5.2V18.8H20.9998V5.2H18.9998ZM16.7998 21H11.1998V23H16.7998V21ZM8.99985 18.8V17H6.99985V18.8H8.99985ZM11.1998 21C10.6233 21 10.251 20.9992 9.96768 20.9761C9.69602 20.9539 9.5953 20.9162 9.54586 20.891L8.63788 22.673C9.01626 22.8658 9.40947 22.9371 9.80482 22.9694C10.1885 23.0008 10.6563 23 11.1998 23V21ZM6.99985 18.8C6.99985 19.3436 6.99907 19.8114 7.03042 20.195C7.06272 20.5904 7.13403 20.9836 7.32683 21.362L9.10884 20.454C9.08365 20.4045 9.04597 20.3038 9.02377 20.0322C9.00063 19.7488 8.99985 19.3766 8.99985 18.8H6.99985ZM9.54586 20.891C9.3577 20.7951 9.20471 20.6422 9.10884 20.454L7.32683 21.362C7.61445 21.9265 8.07339 22.3854 8.63788 22.673L9.54586 20.891ZM18.9998 18.8C18.9998 19.3766 18.9991 19.7488 18.9759 20.0322C18.9537 20.3038 18.916 20.4045 18.8909 20.454L20.6729 21.362C20.8657 20.9836 20.937 20.5904 20.9693 20.195C21.0006 19.8114 20.9998 19.3436 20.9998 18.8H18.9998ZM16.7998 23C17.3434 23 17.8112 23.0008 18.1949 22.9694C18.5902 22.9371 18.9834 22.8658 19.3618 22.673L18.4538 20.891C18.4044 20.9162 18.3037 20.9539 18.032 20.9761C17.7487 20.9992 17.3764 21 16.7998 21V23ZM18.8909 20.454C18.795 20.6422 18.642 20.7951 18.4538 20.891L19.3618 22.673C19.9263 22.3854 20.3852 21.9265 20.6729 21.362L18.8909 20.454ZM16.7998 3C17.3764 3 17.7487 3.00078 18.032 3.02393C18.3037 3.04612 18.4044 3.0838 18.4538 3.10899L19.3618 1.32698C18.9834 1.13419 18.5902 1.06287 18.1949 1.03057C17.8112 0.999222 17.3434 1 16.7998 1V3ZM20.9998 5.2C20.9998 4.65645 21.0006 4.18864 20.9693 3.80497C20.937 3.40963 20.8657 3.01641 20.6729 2.63803L18.8909 3.54601C18.916 3.59545 18.9537 3.69617 18.9759 3.96784C18.9991 4.25117 18.9998 4.62345 18.9998 5.2H20.9998ZM18.4538 3.10899C18.642 3.20487 18.795 3.35785 18.8909 3.54601L20.6729 2.63803C20.3852 2.07354 19.9263 1.6146 19.3618 1.32698L18.4538 3.10899ZM8.99985 5.2C8.99985 4.62345 9.00063 4.25117 9.02377 3.96784C9.04597 3.69617 9.08365 3.59545 9.10884 3.54601L7.32683 2.63803C7.13403 3.01641 7.06272 3.40963 7.03042 3.80497C6.99907 4.18864 6.99985 4.65645 6.99985 5.2H8.99985ZM11.1998 1C10.6563 1 10.1885 0.999222 9.80482 1.03057C9.40947 1.06287 9.01626 1.13419 8.63788 1.32698L9.54586 3.10899C9.5953 3.0838 9.69602 3.04612 9.96768 3.02393C10.251 3.00078 10.6233 3 11.1998 3V1ZM9.10884 3.54601C9.20471 3.35785 9.3577 3.20487 9.54586 3.10899L8.63788 1.32698C8.07339 1.6146 7.61445 2.07354 7.32683 2.63803L9.10884 3.54601ZM2.99985 13L13.9998 13V11L2.99985 11L2.99985 13ZM4.29274 8.29289L2.42411 10.1615L3.83833 11.5757L5.70695 9.70711L4.29274 8.29289ZM2.42411 13.8385L4.29274 15.7071L5.70696 14.2929L3.83832 12.4243L2.42411 13.8385ZM2.42411 10.1615C2.23777 10.3479 2.05494 10.5296 1.91409 10.6955C1.76565 10.8704 1.60608 11.0922 1.51195 11.382L3.41406 12C3.39412 12.0614 3.37064 12.0701 3.43877 11.9899C3.51447 11.9007 3.62865 11.7854 3.83833 11.5757L2.42411 10.1615ZM3.83833 12.4243C3.62866 12.2146 3.51447 12.0993 3.43877 12.0101C3.37064 11.9299 3.39412 11.9386 3.41406 12L1.51195 12.618C1.60608 12.9078 1.76566 13.1296 1.91409 13.3045C2.05494 13.4704 2.23777 13.6521 2.42411 13.8385L3.83833 12.4243ZM1.51195 11.382C1.38143 11.7837 1.38143 12.2163 1.51195 12.618L3.41406 12V12L1.51195 11.382Z" fill="#111111"/>
</svg>
