<svg width="84" height="57" viewBox="0 0 84 57" fill="none" xmlns="http://www.w3.org/2000/svg">
<g clip-path="url(#clip0_214_529)">
<path d="M13.7917 0.218666C14.9502 0.526018 15.9669 1.08162 16.8535 1.9091C17.4919 2.51198 18.3076 3.54043 18.3076 3.76503C18.3076 3.8005 17.8702 3.91871 17.3382 4.01328L16.357 4.20242L16.1206 3.89507C15.3285 2.8548 13.8744 2.02732 12.6213 1.92092C10.1742 1.6845 7.84532 3.72957 6.93504 6.89766C6.55675 8.24528 6.55675 10.6332 6.93504 11.9808C7.63253 14.4041 9.2403 16.2719 11.0845 16.8157C11.4392 16.9221 11.9357 17.0048 12.1839 17.0048C13.106 17.0048 13.5553 17.986 12.9287 18.6007C12.5859 18.9553 12.0184 18.979 10.8717 18.7189C7.91625 18.0214 5.54007 15.1016 4.88987 11.3661C4.00324 6.28296 6.7459 1.14072 10.8717 0.159561C11.8766 -0.0768642 12.7395 -0.0532207 13.7917 0.218666Z" fill="#4A3AFF"/>
<path d="M21.6767 5.7865C23.379 6.03474 25.6843 6.99226 27.1502 8.06799C31.0514 10.9524 32.9429 16.071 31.7961 20.7285L31.5597 21.6742L38.4755 28.5896L45.3794 35.505V39.2051V42.9051L45.0838 43.1888L44.8001 43.4844H41.1235H37.447L37.1632 43.1888C36.8795 42.917 36.8677 42.846 36.8677 41.2974V39.7016H35.2718C33.7231 39.7016 33.6522 39.6898 33.3803 39.4061C33.0965 39.1342 33.0847 39.0632 33.0847 37.5147V35.9188H31.4651H29.8455L26.8428 32.9162L23.8283 29.9254L24.1829 29.4053C25.0341 28.1641 25.8143 26.2845 26.1808 24.5704C26.4527 23.3174 26.4882 20.4093 26.2399 19.1918C25.3651 14.7588 22.5515 11.0469 18.5794 9.03733C17.1489 8.32806 14.9028 7.66607 13.8625 7.66607C13.6379 7.66607 13.4605 7.61878 13.4605 7.54786C13.4605 7.39418 15.1156 6.57851 16.0613 6.27116C17.7518 5.71556 19.9034 5.53825 21.6767 5.7865Z" fill="white"/>
<path d="M14.1107 9.55743C16.5933 9.94753 19.2296 11.2952 20.991 13.0802C25.2114 17.3476 25.7434 23.9911 22.2678 28.8851C21.5466 29.9018 19.797 31.5449 18.804 32.1242L17.9528 32.6325V42.0422V51.4637L15.3165 54.088C12.9049 56.5113 12.6566 56.7241 12.2783 56.7241C11.9 56.7241 11.6518 56.5113 9.24014 54.088C6.85214 51.7001 6.60388 51.4164 6.60388 51.0618C6.60388 50.7189 6.75756 50.5062 7.8097 49.4422L9.01553 48.2128L7.8097 46.9834C6.20194 45.3521 6.20194 45.3994 7.8097 43.7681L9.01553 42.5387L7.8097 41.3092L6.60388 40.0917V36.3561V32.6206L6.21376 32.4197C5.07887 31.8404 2.96276 29.9018 2.14706 28.696C1.13038 27.2065 0.338322 25.1142 0.090065 23.3173C-0.311876 20.3147 0.610226 16.8157 2.4426 14.4041C3.36471 13.1866 3.31742 13.1866 3.75483 14.3568C4.61782 16.6147 6.48566 18.7307 8.61359 19.8537C8.90913 20.0074 9.35836 20.3384 9.5948 20.5866C9.84305 20.8231 10.3159 21.1659 10.6588 21.3432C11.1907 21.6269 11.4154 21.6742 12.2783 21.6742C13.1413 21.6742 13.3778 21.6269 13.957 21.3432C14.69 20.9886 15.3165 20.362 15.7303 19.5818C15.9549 19.1563 16.0022 18.8962 16.0022 17.9505C16.0022 16.6975 15.8249 16.2128 15.0446 15.3498C14.1698 14.3805 12.5384 13.9431 11.2735 14.3332L10.6824 14.5105L10.1741 14.014C9.51204 13.3757 8.80273 11.9453 8.62541 10.9169C8.50719 10.2667 8.50719 10.0894 8.63723 10.0185C9.28743 9.60472 12.633 9.33283 14.1107 9.55743Z" fill="white"/>
</g>
<g clip-path="url(#clip1_214_529)">
<path d="M70.2083 0.218666C69.0498 0.526018 68.0331 1.08162 67.1465 1.9091C66.5081 2.51198 65.6924 3.54043 65.6924 3.76503C65.6924 3.8005 66.1298 3.91871 66.6618 4.01328L67.643 4.20242L67.8794 3.89507C68.6715 2.8548 70.1256 2.02732 71.3787 1.92092C73.8258 1.6845 76.1547 3.72957 77.065 6.89766C77.4433 8.24528 77.4433 10.6332 77.065 11.9808C76.3675 14.4041 74.7597 16.2719 72.9155 16.8157C72.5608 16.9221 72.0643 17.0048 71.8161 17.0048C70.894 17.0048 70.4447 17.986 71.0713 18.6007C71.4141 18.9553 71.9816 18.979 73.1283 18.7189C76.0837 18.0214 78.4599 15.1016 79.1101 11.3661C79.9968 6.28296 77.2541 1.14072 73.1283 0.159561C72.1234 -0.0768642 71.2605 -0.0532207 70.2083 0.218666Z" fill="#4A3AFF"/>
<path d="M62.3233 5.7865C60.621 6.03474 58.3157 6.99226 56.8498 8.06799C52.9486 10.9524 51.0571 16.071 52.2039 20.7285L52.4403 21.6742L45.5245 28.5896L38.6206 35.505V39.2051V42.9051L38.9162 43.1888L39.1999 43.4844H42.8765H46.553L46.8368 43.1888C47.1205 42.917 47.1323 42.846 47.1323 41.2974V39.7016H48.7282C50.2769 39.7016 50.3478 39.6898 50.6197 39.4061C50.9035 39.1342 50.9153 39.0632 50.9153 37.5147V35.9188H52.5349H54.1545L57.1572 32.9162L60.1717 29.9254L59.8171 29.4053C58.9659 28.1641 58.1857 26.2845 57.8192 24.5704C57.5473 23.3174 57.5118 20.4093 57.7601 19.1918C58.6349 14.7588 61.4485 11.0469 65.4206 9.03733C66.8511 8.32806 69.0972 7.66607 70.1375 7.66607C70.3621 7.66607 70.5395 7.61878 70.5395 7.54786C70.5395 7.39418 68.8844 6.57851 67.9387 6.27116C66.2482 5.71556 64.0966 5.53825 62.3233 5.7865Z" fill="white"/>
<path d="M69.8893 9.55743C67.4067 9.94753 64.7704 11.2952 63.009 13.0802C58.7886 17.3476 58.2566 23.9911 61.7322 28.8851C62.4534 29.9018 64.203 31.5449 65.196 32.1242L66.0472 32.6325V42.0422V51.4637L68.6835 54.088C71.0951 56.5113 71.3434 56.7241 71.7217 56.7241C72.1 56.7241 72.3482 56.5113 74.7599 54.088C77.1479 51.7001 77.3961 51.4164 77.3961 51.0618C77.3961 50.7189 77.2424 50.5062 76.1903 49.4422L74.9845 48.2128L76.1903 46.9834C77.7981 45.3521 77.7981 45.3994 76.1903 43.7681L74.9845 42.5387L76.1903 41.3092L77.3961 40.0917V36.3561V32.6206L77.7862 32.4197C78.9211 31.8404 81.0372 29.9018 81.8529 28.696C82.8696 27.2065 83.6617 25.1142 83.9099 23.3173C84.3119 20.3147 83.3898 16.8157 81.5574 14.4041C80.6353 13.1866 80.6826 13.1866 80.2452 14.3568C79.3822 16.6147 77.5143 18.7307 75.3864 19.8537C75.0909 20.0074 74.6416 20.3384 74.4052 20.5866C74.1569 20.8231 73.6841 21.1659 73.3412 21.3432C72.8093 21.6269 72.5846 21.6742 71.7217 21.6742C70.8587 21.6742 70.6222 21.6269 70.043 21.3432C69.31 20.9886 68.6835 20.362 68.2697 19.5818C68.0451 19.1563 67.9978 18.8962 67.9978 17.9505C67.9978 16.6975 68.1751 16.2128 68.9554 15.3498C69.8302 14.3805 71.4616 13.9431 72.7265 14.3332L73.3176 14.5105L73.8259 14.014C74.488 13.3757 75.1973 11.9453 75.3746 10.9169C75.4928 10.2667 75.4928 10.0894 75.3628 10.0185C74.7126 9.60472 71.367 9.33283 69.8893 9.55743Z" fill="white"/>
</g>
<defs>
<clipPath id="clip0_214_529">
<rect width="45.3793" height="56.7241" fill="white" transform="matrix(-1 0 0 1 45.3794 0)"/>
</clipPath>
<clipPath id="clip1_214_529">
<rect width="45.3793" height="56.7241" fill="white" transform="translate(38.6206)"/>
</clipPath>
</defs>
</svg>
