<svg width="320" height="321" viewBox="0 0 320 321" fill="none" xmlns="http://www.w3.org/2000/svg">
<path d="M153.13 0.245611C148.259 0.885258 143.304 0.836441 138.41 1.47994C129.326 2.67446 120.276 4.76014 111.53 7.47796C97.8958 11.7151 84.8485 18.0575 72.8104 25.6928C70.388 27.2293 67.7657 28.5516 65.4504 30.2407C62.0975 32.6868 58.976 35.682 55.8504 38.4187C48.1802 45.1346 41.1077 52.2984 34.7304 60.2698C30.7069 65.299 26.6655 70.0656 23.3554 75.6298C1.20534 112.862 -5.73075 157.785 4.77042 199.79C8.01424 212.765 13.1884 225.105 19.406 236.91C20.5706 239.121 21.3368 241.479 22.6356 243.63C25.0226 247.583 28.0061 251.143 30.7709 254.83C40.0464 267.197 50.8092 278.537 63.2104 287.823C81.2791 301.354 101.805 310.683 123.69 315.991C141.319 320.267 160.432 321.424 178.41 319.06C183.994 318.326 189.518 317.384 195.05 316.353C198.287 315.75 201.484 315.393 204.65 314.439C211.069 312.506 217.12 309.841 223.21 307.088C243.818 297.771 262.01 285.018 277.838 268.869C279.343 267.333 280.501 265.455 281.854 263.79C285.002 259.918 288.098 256.039 290.961 251.95C302.536 235.413 311.061 216.596 315.579 196.91C316.672 192.148 317.896 187.367 318.479 182.51C321.146 160.281 319.88 137.901 313.852 116.27C299.162 63.558 256.416 21.342 204.01 6.28293C192.127 2.8682 180.135 1.24243 167.85 0.401178C163.071 0.0738713 157.907 -0.381451 153.13 0.245611ZM160.81 2.46101C165.601 1.53571 167.492 8.6299 162.73 9.78549C157.946 10.9465 155.8 3.4288 160.81 2.46101ZM261.93 54.5097C260.308 54.0543 259.329 52.8108 258.09 51.7211C255.888 49.783 253.683 47.8109 251.37 46.0055C244.024 40.2701 236.31 34.8763 228.01 30.5924C193.774 12.9219 153.549 8.81113 116.65 20.2778C102.729 24.604 89.2448 30.9613 77.2904 39.3383C72.7408 42.5264 68.3904 45.9154 64.1704 49.5242C62.2692 51.1501 60.1992 53.8279 57.7704 54.5097C57.6371 52.919 58.5843 52.0679 59.6907 51.0022C61.414 49.3423 63.3035 47.8224 65.1304 46.2776C73.5069 39.1943 82.8444 33.0937 92.6504 28.1906C132.961 8.0353 182.752 6.18368 223.53 26.4289C234.257 31.7543 244.292 37.936 253.61 45.4869C255.784 47.2482 257.995 49.0613 260.01 51.0022C261.116 52.0679 262.064 52.919 261.93 54.5097ZM204.97 122.99C199.177 122.134 193.492 119.792 187.69 118.705C176.025 116.52 164.03 115.763 152.17 116.282C143.473 116.663 134.749 118.038 126.25 119.926C122.403 120.78 118.615 122.416 114.73 122.99C114.402 120.689 114.766 118.25 114.996 115.95C115.467 111.242 116.037 106.568 116.601 101.87C118.121 89.2056 120.998 76.4757 125.18 64.4298C127.735 57.0718 130.623 49.5485 134.89 42.9898C140.584 34.2377 148.389 24.6126 159.85 24.6126C171.444 24.6126 179.303 34.459 185.02 43.3098C189.121 49.6585 191.983 56.9835 194.411 64.1098C198.417 75.8644 201.134 87.9792 202.866 100.27C203.602 105.491 204.293 110.693 204.679 115.95C204.85 118.279 205.231 120.654 204.97 122.99ZM39.5306 220.27H38.5706C35.5175 212.927 32.4985 205.729 29.9296 198.19C29.2006 196.05 28.1108 193.993 27.5869 191.79C25.7205 183.943 25.1492 175.489 24.798 167.47C24.5664 162.18 24.1557 156.779 24.5192 151.47C26.1534 127.606 34.5806 104.078 47.8509 84.2698C53.8548 75.308 60.9891 67.1653 68.9706 59.9259C70.8654 58.2073 72.7936 56.5219 74.7306 54.8506C75.7606 53.9619 77.2123 52.6111 78.5706 52.2915C80.0156 51.9518 81.8788 53.4908 83.0506 54.1945C87.4598 56.8422 91.1525 60.9251 94.1158 65.0698C103.091 77.624 108.41 92.9094 111.467 107.95C112.16 111.359 112.924 114.74 113.409 118.19C113.588 119.461 114.115 121.057 113.853 122.332C113.568 123.722 112.027 123.98 110.891 124.406C108.217 125.407 105.527 126.376 102.891 127.474C92.6427 131.738 82.7726 137.519 74.0906 144.431C57.4285 157.696 44.2207 176.32 40.3671 197.55C39.0258 204.939 39.5306 212.781 39.5306 220.27ZM282.091 218.35L281.451 217.71L280.491 220.27C279.663 218.294 280.491 215.081 280.491 212.91C280.491 207.826 280.301 202.887 279.395 197.87C276.445 181.545 268.012 166.725 256.782 154.67C247.164 144.344 235.23 136.238 222.571 130.113C218.816 128.296 214.976 126.663 211.051 125.247C209.551 124.706 207.574 124.721 206.951 122.984C206.484 121.68 207.13 120.138 207.342 118.83C207.883 115.497 208.591 112.219 209.258 108.91C212.26 94.0206 217.814 78.5976 226.932 66.3498C229.93 62.3235 233.604 58.6424 237.929 56.0607C239.131 55.3436 240.247 53.6885 241.776 54.0101C243.192 54.3079 244.479 55.4712 245.611 56.3113C247.836 57.964 249.971 59.6573 252.011 61.5338C253.136 62.5686 254.427 63.3724 255.531 64.4358C261.429 70.1197 266.5 76.662 271.256 83.3098C291.911 112.185 299.083 150.107 292.835 184.75C291.696 191.064 290.207 197.588 288.031 203.63C286.241 208.601 283.788 213.366 282.091 218.35ZM81.1306 55.1498L80.8106 55.7898H81.4506L81.1306 55.1498ZM51.6906 59.3098L52.6506 59.9498L47.0308 66.9898L43.3706 70.8298C42.998 69.0189 43.8661 68.0466 44.9708 66.6698C46.9731 64.1745 49.0743 61.1682 51.6906 59.3098ZM268.331 59.3098C270.5 61.5251 272.522 63.9403 274.473 66.3498C275.65 67.8027 276.73 68.8894 276.331 70.8298L272.67 66.9898L267.051 59.9498L268.331 59.3098ZM38.5706 76.2698C38.9468 77.9114 38.0596 79.0759 37.1807 80.4298C35.8062 82.5473 34.5234 84.7249 33.1306 86.8298C31.6219 85.8189 32.4576 84.6409 33.2214 83.3098C34.5605 80.9764 36.1614 77.5796 38.5706 76.2698ZM286.571 86.8298C285.178 84.7249 283.895 82.5473 282.52 80.4298C281.642 79.0759 280.754 77.9115 281.131 76.2698C283.561 77.591 285.109 80.9845 286.505 83.3098C287.301 84.6346 288.077 85.8212 286.571 86.8298ZM24.4904 103.79C22.4887 101.805 25.7584 97.2492 26.8094 95.1498C27.1839 94.4017 27.7041 92.7326 28.6699 92.5647C29.2818 92.4581 29.4251 93.108 29.359 93.5688C29.2021 94.6627 28.4131 95.772 27.9324 96.7498C27.4667 97.697 27.0707 98.6709 26.6316 99.6298C25.9813 101.05 25.3719 102.5 24.4904 103.79ZM295.53 103.79C293.346 101.884 292.406 98.0517 291.13 95.4698C290.877 94.9589 289.6 92.7932 290.803 92.5647C291.854 92.3651 292.549 94.4656 292.891 95.1498C294.05 97.4643 296.812 101.278 295.53 103.79ZM19.3704 118.83L18.0904 118.51C18.2441 115.147 19.869 111.297 21.2904 108.27C22.7791 108.769 22.3461 109.876 21.9301 111.15C21.0956 113.706 20.3307 116.322 19.3704 118.83ZM298.41 108.27C299.832 111.297 301.457 115.147 301.61 118.51L300.33 118.83C299.37 116.322 298.605 113.706 297.771 111.15C297.355 109.876 296.922 108.769 298.41 108.27ZM216.17 113.07V114.03H216.491L216.17 113.07ZM16.1702 132.91C14.3141 132.6 14.6328 131.252 14.9576 129.71C15.4506 127.369 16.1712 125.039 16.4902 122.67C18.3833 122.986 17.943 124.346 17.57 125.87C17.0066 128.172 16.3585 130.545 16.1702 132.91ZM303.21 122.67C303.529 125.039 304.25 127.369 304.743 129.71C305.067 131.252 305.386 132.6 303.53 132.91C303.342 130.545 302.694 128.172 302.13 125.87C301.757 124.346 301.317 122.986 303.21 122.67ZM159.85 127.333C199.985 127.333 242.741 146.207 261.369 183.47C263.912 188.556 265.871 193.952 267.25 199.47C268.95 206.268 269.455 212.979 269.295 219.95C269.099 228.526 267.731 237.941 264.23 245.87C262.854 248.985 259.541 251.58 257.158 253.924C252.592 258.417 248.14 262.842 243.05 266.782C219.558 284.966 189.79 296.008 159.85 295.324C144.178 294.966 128.337 292.76 113.45 287.567C110.037 286.377 106.814 284.592 103.53 283.089C93.7232 278.598 84.4897 272.959 76.0104 266.282C70.3866 261.854 64.9719 257.006 60.239 251.63C58.5556 249.718 56.3556 247.868 55.2252 245.55C51.2976 237.494 50.7391 228.381 50.3981 219.63C50.1301 212.753 50.8211 205.835 52.5319 199.15C62.141 161.602 97.7382 136.998 134.25 129.534C142.516 127.844 151.434 127.333 159.85 127.333ZM13.6104 148.27C12.4176 147.577 12.6092 146.678 12.6472 145.39C12.7148 143.099 12.9441 140.543 13.6104 138.35C15.1092 138.952 14.9005 140.116 14.706 141.55C14.4044 143.772 14.4865 146.194 13.6104 148.27ZM306.09 138.35C306.757 140.543 306.986 143.099 307.054 145.39C307.092 146.678 307.283 147.577 306.09 148.27C305.214 146.194 305.296 143.772 304.995 141.55C304.8 140.116 304.592 138.952 306.09 138.35ZM12.0104 164.91V155.31L13.4188 156.052L13.6104 162.03L13.4188 164.168L12.0104 164.91ZM307.69 155.31V164.91L306.282 164.168L306.09 162.03L306.282 156.052L307.69 155.31ZM13.6104 171.95L14.3865 176.43L14.8388 180.555L13.6104 181.87C12.9441 179.677 12.7148 177.12 12.6472 174.83C12.6092 173.542 12.4176 172.643 13.6104 171.95ZM306.09 181.87C304.592 181.267 304.8 180.103 304.995 178.67C305.298 176.433 305.295 174.075 306.09 171.95C307.283 172.643 307.092 173.542 307.054 174.83C306.986 177.12 306.757 179.677 306.09 181.87ZM16.1704 187.31C16.3586 189.675 17.0068 192.048 17.5702 194.35C17.9432 195.874 18.3835 197.234 16.4904 197.55C16.1714 195.181 15.4508 192.851 14.9578 190.51C14.633 188.967 14.3142 187.62 16.1704 187.31ZM303.21 197.55C301.317 197.233 301.758 195.874 302.131 194.35C302.694 192.048 303.342 189.675 303.53 187.31C305.387 187.62 305.068 188.967 304.743 190.51C304.25 192.851 303.529 195.181 303.21 197.55ZM19.3704 201.39C20.3308 203.898 21.0956 206.514 21.9302 209.07C22.3462 210.344 22.7792 211.451 21.2904 211.95C19.8691 208.922 18.2441 205.073 18.0904 201.71L19.3704 201.39ZM301.61 201.71C301.457 205.073 299.832 208.922 298.41 211.95C296.922 211.451 297.355 210.344 297.771 209.07C298.605 206.514 299.37 203.898 300.33 201.39L301.61 201.71ZM24.4904 216.43C25.3719 217.719 25.9813 219.17 26.6316 220.59C27.0707 221.549 27.4667 222.523 27.9324 223.47C28.4131 224.448 29.2022 225.557 29.359 226.651C29.4252 227.112 29.2819 227.762 28.6699 227.655C27.7042 227.487 27.1839 225.818 26.8094 225.07C25.7585 222.971 22.4887 218.415 24.4904 216.43ZM295.53 216.43C296.812 218.942 294.05 222.756 292.891 225.07C292.549 225.754 291.854 227.855 290.803 227.655C289.6 227.426 290.877 225.261 291.13 224.75C292.406 222.168 293.346 218.336 295.53 216.43ZM33.1304 233.39C34.5233 235.495 35.806 237.672 37.1805 239.79C38.0594 241.144 38.9466 242.308 38.5704 243.95C36.1613 242.64 34.5603 239.243 33.2213 236.91C32.4574 235.579 31.6217 234.401 33.1304 233.39ZM281.13 243.95C280.754 242.308 281.641 241.144 282.52 239.79C283.895 237.672 285.178 235.495 286.57 233.39C288.077 234.399 287.301 235.585 286.505 236.91C285.109 239.235 283.561 242.629 281.13 243.95ZM52.6506 260.27L51.6906 260.91H51.3706C49.201 258.695 47.1793 256.28 45.2279 253.87C44.0512 252.417 42.9714 251.33 43.3706 249.39L47.0309 253.23L52.6506 260.27ZM276.331 249.39C276.73 251.33 275.65 252.417 274.473 253.87C272.522 256.28 270.5 258.695 268.331 260.91H268.01L267.051 260.27L272.67 253.23L276.331 249.39ZM261.931 265.71C262.064 267.301 261.117 268.152 260.01 269.217C258.287 270.877 256.397 272.397 254.57 273.942C246.194 281.025 236.857 287.126 227.051 292.029C186.709 312.2 137.314 314.019 96.4905 293.948C85.6339 288.61 75.5034 282.36 66.0905 274.733C63.917 272.971 61.7059 271.158 59.6907 269.217C58.5844 268.152 57.6372 267.301 57.7705 265.71C60.1993 266.392 62.2692 269.069 64.1705 270.695C68.2913 274.219 72.5345 277.533 76.9705 280.656C89.0014 289.125 102.619 295.581 116.65 299.942C153.493 311.391 193.822 307.273 228.01 289.627C236.31 285.343 244.024 279.949 251.371 274.214C253.683 272.409 255.888 270.437 258.091 268.499C259.329 267.409 260.308 266.165 261.931 265.71ZM230.251 266.99L229.61 267.31V267.63L230.251 266.99ZM161.77 310.342C166.615 310.171 166.692 317.671 161.77 317.828C156.691 317.989 156.762 310.52 161.77 310.342Z" fill="#4A3AFF"/>
</svg>
