<svg width="1734" height="498" viewBox="0 0 1734 498" fill="none" xmlns="http://www.w3.org/2000/svg">
<path fill-rule="evenodd" clip-rule="evenodd" d="M487.731 320C457.166 422.928 361.85 498 249 498C111.481 498 0 386.519 0 249C0 111.481 111.481 0 249 0C366.549 0 465.074 81.4548 491.209 191H1734V320H1685.78C1686.8 315.149 1687.3 309.805 1687.3 303.968C1687.3 290.059 1684.49 279.008 1678.86 270.816C1673.31 262.539 1665.33 258.4 1654.92 258.4C1648.01 258.4 1642.12 260.32 1637.26 264.16C1632.39 268 1628.72 273.376 1626.25 280.288C1623.77 287.2 1622.54 295.136 1622.54 304.096C1622.54 309.904 1623.01 315.206 1623.97 320H1532.98L1525.56 308.96C1532.05 307.339 1537.25 304.48 1541.18 300.384C1545.1 296.203 1547.07 290.955 1547.07 284.64C1547.07 276.448 1544.25 270.261 1538.62 266.08C1533.07 261.899 1524.84 259.808 1513.91 259.808H1491.39V320H1367.28V307.808H1400.04V298.72H1367.28V269.024H1405.04L1406.32 259.808H1356.27V320H1245.73V269.408H1272.35L1273.5 259.808H1207.07V269.408H1234.59V320H1133.02C1134.04 315.149 1134.54 309.805 1134.54 303.968C1134.54 290.059 1131.73 279.008 1126.1 270.816C1120.55 262.539 1112.57 258.4 1102.16 258.4C1095.25 258.4 1089.36 260.32 1084.5 264.16C1079.63 268 1075.96 273.376 1073.49 280.288C1071.01 287.2 1069.78 295.136 1069.78 304.096C1069.78 309.904 1070.25 315.206 1071.21 320H947.097C945.887 315.441 945.282 310.055 945.282 303.84C945.282 291.296 947.757 282.165 952.706 276.448C957.741 270.645 964.226 267.744 972.162 267.744C979.33 267.744 985.517 269.92 990.722 274.272L996.994 266.976C993.239 264.075 989.399 261.941 985.474 260.576C981.549 259.125 976.855 258.4 971.394 258.4C964.482 258.4 958.125 260.149 952.322 263.648C946.605 267.147 942.039 272.352 938.626 279.264C935.298 286.091 933.634 294.283 933.634 303.84C933.634 309.757 934.261 315.143 935.514 320H855.937C855.322 314.15 853.12 309.616 849.332 306.4C844.895 302.56 838.537 299.445 830.26 297.056C824.543 295.435 820.105 293.856 816.948 292.32C813.791 290.784 811.529 289.12 810.164 287.328C808.799 285.536 808.116 283.36 808.116 280.8C808.116 276.533 809.78 273.291 813.108 271.072C816.436 268.853 820.66 267.744 825.78 267.744C833.801 267.744 840.841 270.389 846.9 275.68L853.556 268.512C849.716 265.184 845.492 262.667 840.884 260.96C836.361 259.253 831.199 258.4 825.396 258.4C819.849 258.4 814.9 259.381 810.548 261.344C806.196 263.221 802.825 265.909 800.436 269.408C798.047 272.907 796.852 276.832 796.852 281.184C796.852 287.755 799.199 292.96 803.892 296.8C808.585 300.555 815.711 303.84 825.268 306.656C830.303 308.107 834.185 309.6 836.916 311.136C839.732 312.672 841.695 314.421 842.804 316.384C843.401 317.441 843.838 318.646 844.114 320H714.199L694.63 259.808H680.55L660.894 320H582.375L578.968 259.808H563.352L549.707 320H549.603L535.32 259.808H519.832L516.425 320H487.731ZM130 249.5C130 266.345 116.345 280 99.5 280C82.6553 280 69 266.345 69 249.5C69 232.655 82.6553 219 99.5 219C116.345 219 130 232.655 130 249.5ZM1675.78 303.968C1675.78 310.084 1675.35 315.428 1674.49 320H1635.34C1634.48 315.456 1634.06 310.154 1634.06 304.096C1634.06 292.064 1635.72 283.019 1639.05 276.96C1642.38 270.816 1647.67 267.744 1654.92 267.744C1662.17 267.744 1667.46 270.773 1670.79 276.832C1674.12 282.891 1675.78 291.936 1675.78 303.968ZM1514.3 310.24L1520.55 320H1502.39V310.24H1514.3ZM1123.02 303.968C1123.02 310.084 1122.59 315.428 1121.73 320H1082.58C1081.72 315.456 1081.3 310.154 1081.3 304.096C1081.3 292.064 1082.96 283.019 1086.29 276.96C1089.62 270.816 1094.91 267.744 1102.16 267.744C1109.41 267.744 1114.7 270.773 1118.03 276.832C1121.36 282.891 1123.02 291.936 1123.02 303.968ZM570.52 301.92L571.575 320H557.805L569.752 270.048C569.752 283.189 570.008 293.813 570.52 301.92ZM527.896 270.048L540.667 320H526.736L527.64 301.92C527.981 296.715 528.152 290.187 528.152 282.336C528.152 277.216 528.067 273.12 527.896 270.048ZM701.798 316.256L687.334 269.28L672.742 316.256H701.798ZM1535.29 284.64C1535.29 279.008 1533.67 274.955 1530.43 272.48C1527.18 270.005 1522.11 268.768 1515.19 268.768H1502.39V301.536H1515.32C1521.89 301.536 1526.84 300.213 1530.17 297.568C1533.58 294.837 1535.29 290.528 1535.29 284.64Z" fill="#170F49"/>
</svg>
