<svg width="92" height="58" viewBox="0 0 92 58" fill="none" xmlns="http://www.w3.org/2000/svg">
<path d="M14.7914 1.21867C15.95 1.52602 16.9667 2.08162 17.8533 2.9091C18.4917 3.51198 19.3074 4.54043 19.3074 4.76503C19.3074 4.8005 18.87 4.91871 18.338 5.01328L17.3568 5.20242L17.1203 4.89507C16.3283 3.8548 14.8742 3.02731 13.6211 2.92092C11.174 2.6845 8.84508 4.72957 7.9348 7.89766C7.5565 9.24528 7.5565 11.6332 7.9348 12.9808C8.63229 15.4041 10.2401 17.2719 12.0843 17.8157C12.4389 17.9221 12.9354 18.0048 13.1837 18.0048C14.1058 18.0048 14.555 18.986 13.9285 19.6007C13.5856 19.9553 13.0182 19.979 11.8715 19.7189C8.91601 19.0214 6.53983 16.1016 5.88963 12.3661C5.00299 7.28296 7.74565 2.14072 11.8715 1.15956C12.8763 0.923136 13.7393 0.946779 14.7914 1.21867Z" fill="#170F49"/>
<path d="M22.6766 6.78649C24.3789 7.03474 26.6842 7.99226 28.1501 9.06799C32.0512 11.9524 33.9427 17.071 32.796 21.7285L32.5596 22.6742L39.4753 29.5896L46.3793 36.505V40.2051V43.9051L46.0837 44.1888L45.8 44.4844H42.1234H38.4468L38.1631 44.1888C37.8794 43.917 37.8676 43.846 37.8676 42.2974V40.7016H36.2716C34.723 40.7016 34.652 40.6898 34.3801 40.4061C34.0964 40.1342 34.0846 40.0632 34.0846 38.5147V36.9188H32.465H30.8454L27.8427 33.9162L24.8281 30.9254L25.1828 30.4053C26.034 29.1641 26.8142 27.2845 27.1807 25.5704C27.4526 24.3174 27.488 21.4093 27.2398 20.1918C26.365 15.7588 23.5514 12.0469 19.5792 10.0373C18.1488 9.32806 15.9027 8.66607 14.8624 8.66607C14.6377 8.66607 14.4604 8.61878 14.4604 8.54786C14.4604 8.39418 16.1155 7.57852 17.0612 7.27116C18.7517 6.71557 20.9033 6.53825 22.6766 6.78649Z" fill="#4A3AFF"/>
<path d="M15.1106 10.5574C17.5932 10.9475 20.2294 12.2952 21.9909 14.0802C26.2113 18.3476 26.7433 24.9911 23.2676 29.8851C22.5465 30.9018 20.7969 32.5449 19.8039 33.1242L18.9527 33.6325V43.0422V52.4637L16.3164 55.088C13.9048 57.5113 13.6565 57.7241 13.2782 57.7241C12.8999 57.7241 12.6517 57.5113 10.24 55.088C7.85202 52.7001 7.60376 52.4164 7.60376 52.0618C7.60376 51.7189 7.75744 51.5062 8.80958 50.4422L10.0154 49.2128L8.80958 47.9834C7.20182 46.3521 7.20182 46.3994 8.80958 44.7681L10.0154 43.5387L8.80958 42.3092L7.60376 41.0917V37.3561V33.6206L7.21364 33.4197C6.07874 32.8404 3.96264 30.9018 3.14694 29.696C2.13026 28.2065 1.3382 26.1142 1.08994 24.3173C0.688001 21.3147 1.6101 17.8157 3.44248 15.4041C4.36458 14.1865 4.3173 14.1865 4.7547 15.3568C5.61769 17.6147 7.48554 19.7307 9.61346 20.8537C9.90901 21.0074 10.3582 21.3384 10.5947 21.5866C10.8429 21.8231 11.3158 22.1659 11.6586 22.3432C12.1906 22.6269 12.4152 22.6742 13.2782 22.6742C14.1412 22.6742 14.3776 22.6269 14.9569 22.3432C15.6899 21.9886 16.3164 21.362 16.7302 20.5818C16.9548 20.1563 17.0021 19.8962 17.0021 18.9505C17.0021 17.6975 16.8248 17.2128 16.0445 16.3498C15.1697 15.3805 13.5383 14.9431 12.2734 15.3332L11.6823 15.5105L11.1739 15.014C10.5119 14.3757 9.80261 12.9453 9.62529 11.9169C9.50707 11.2667 9.50707 11.0894 9.63711 11.0185C10.2873 10.6047 13.6329 10.3328 15.1106 10.5574Z" fill="#4A3AFF"/>
<path d="M77.5878 1.22141C76.4293 1.52877 75.4126 2.08436 74.526 2.91185C73.8876 3.51473 73.0719 4.54318 73.0719 4.76778C73.0719 4.80324 73.5093 4.92146 74.0413 5.01603L75.0225 5.20517L75.2589 4.89781C76.051 3.85755 77.5051 3.03006 78.7582 2.92367C81.2053 2.68725 83.5342 4.73232 84.4445 7.90041C84.8228 9.24803 84.8228 11.6359 84.4445 12.9835C83.747 15.4069 82.1392 17.2746 80.295 17.8184C79.9404 17.9248 79.4439 18.0076 79.1956 18.0076C78.2735 18.0076 77.8243 18.9887 78.4508 19.6034C78.7937 19.9581 79.3611 19.9817 80.5078 19.7216C83.4633 19.0242 85.8394 16.1043 86.4896 12.3688C87.3763 7.2857 84.6336 2.14347 80.5078 1.16231C79.503 0.925883 78.64 0.949525 77.5878 1.22141Z" fill="#170F49"/>
<path d="M69.7027 6.78924C68.0004 7.03749 65.6951 7.995 64.2292 9.07074C60.328 11.9551 58.4365 17.0737 59.5832 21.7313L59.8197 22.677L52.9039 29.5924L46 36.5078V40.2078V43.9079L46.2955 44.1916L46.5793 44.4871H50.2558H53.9324L54.2162 44.1916C54.4999 43.9197 54.5117 43.8488 54.5117 42.3002V40.7043H56.1076C57.6563 40.7043 57.7272 40.6925 57.9991 40.4088C58.2829 40.1369 58.2947 40.066 58.2947 38.5174V36.9215H59.9143H61.5338L64.5366 33.9189L67.5511 30.9282L67.1965 30.408C66.3453 29.1668 65.5651 27.2872 65.1986 25.5732C64.9267 24.3201 64.8912 21.4121 65.1395 20.1945C66.0143 15.7615 68.8279 12.0497 72.8 10.0401C74.2305 9.3308 76.4766 8.66881 77.5169 8.66881C77.7415 8.66881 77.9189 8.62153 77.9189 8.5506C77.9189 8.39693 76.2638 7.58126 75.3181 7.27391C73.6275 6.71831 71.476 6.54099 69.7027 6.78924Z" fill="#4A3AFF"/>
<path d="M77.2687 10.5602C74.7861 10.9503 72.1498 12.2979 70.3884 14.0829C66.168 18.3504 65.636 24.9939 69.1116 29.8879C69.8328 30.9045 71.5824 32.5477 72.5754 33.1269L73.4266 33.6352V43.0449V52.4664L76.0628 55.0907C78.4745 57.5141 78.7228 57.7269 79.101 57.7269C79.4793 57.7269 79.7276 57.5141 82.1393 55.0907C84.5273 52.7028 84.7755 52.4191 84.7755 52.0645C84.7755 51.7217 84.6218 51.5089 83.5697 50.445L82.3639 49.2156L83.5697 47.9862C85.1775 46.3548 85.1775 46.4021 83.5697 44.7708L82.3639 43.5414L83.5697 42.312L84.7755 41.0944V37.3589V33.6234L85.1656 33.4224C86.3005 32.8432 88.4166 30.9045 89.2323 29.6987C90.249 28.2093 91.0411 26.1169 91.2893 24.3201C91.6913 21.3175 90.7692 17.8184 88.9368 15.4069C88.0147 14.1893 88.062 14.1893 87.6246 15.3596C86.7616 17.6175 84.8937 19.7334 82.7658 20.8565C82.4703 21.0101 82.021 21.3411 81.7846 21.5894C81.5363 21.8258 81.0635 22.1686 80.7206 22.3459C80.1887 22.6296 79.964 22.6769 79.101 22.6769C78.2381 22.6769 78.0016 22.6296 77.4224 22.3459C76.6894 21.9913 76.0628 21.3648 75.6491 20.5846C75.4245 20.159 75.3772 19.8989 75.3772 18.9532C75.3772 17.7002 75.5545 17.2155 76.3347 16.3526C77.2096 15.3832 78.841 14.9459 80.1059 15.336L80.697 15.5133L81.2053 15.0168C81.8674 14.3784 82.5767 12.9481 82.754 11.9196C82.8722 11.2695 82.8722 11.0921 82.7422 11.0212C82.092 10.6075 78.7464 10.3356 77.2687 10.5602Z" fill="#4A3AFF"/>
</svg>
