<svg width="15" height="15" viewBox="0 0 15 15" fill="none" xmlns="http://www.w3.org/2000/svg">
<path d="M12.0962 0.782486L8.20708 4.67157C7.81655 5.0621 7.18339 5.0621 6.79286 4.67157L2.90378 0.782486C2.31799 0.196699 1.36824 0.196699 0.782456 0.782486C0.196669 1.36827 0.196669 2.31802 0.782456 2.90381L4.67154 6.79289C5.06207 7.18342 5.06207 7.81658 4.67154 8.20711L0.782456 12.0962C0.196669 12.682 0.196669 13.6317 0.782456 14.2175C1.36824 14.8033 2.31799 14.8033 2.90378 14.2175L6.79286 10.3284C7.18339 9.9379 7.81655 9.9379 8.20708 10.3284L12.0962 14.2175C12.6819 14.8033 13.6317 14.8033 14.2175 14.2175C14.8033 13.6317 14.8033 12.682 14.2175 12.0962L10.3284 8.20711C9.93787 7.81658 9.93787 7.18342 10.3284 6.79289L14.2175 2.90381C14.8033 2.31802 14.8033 1.36827 14.2175 0.782486C13.6317 0.196699 12.6819 0.1967 12.0962 0.782486Z" fill="#111111"/>
</svg>
