<svg width="242" height="131" viewBox="0 0 242 131" fill="none" xmlns="http://www.w3.org/2000/svg">
<path d="M27.2221 9.79052C27.2449 11.5704 26.9247 13.1146 26.2614 14.4232C25.6181 15.7316 24.6523 16.8441 23.364 17.7607L21.2664 15.6274C22.4166 14.8526 23.2355 13.982 23.7231 13.0157C24.231 12.0691 24.4766 10.9458 24.46 9.64593C24.4477 8.68601 24.3075 7.89774 24.0396 7.28113C23.7717 6.66451 23.4158 6.20904 22.972 5.91471C22.5484 5.64012 22.0667 5.50629 21.5267 5.51321C20.9068 5.52116 20.3695 5.73807 19.9149 6.16394C19.4606 6.6098 19.111 7.42435 18.8662 8.60759L18.0178 12.6388C17.6225 14.564 17 15.9321 16.1503 16.7431C15.3006 17.5541 14.2159 17.968 12.896 17.9849C11.6761 18.0006 10.6119 17.6842 9.70353 17.0358C8.79514 16.3874 8.0934 15.4763 7.59831 14.3026C7.10347 13.1488 6.84592 11.782 6.82566 10.2021C6.8077 8.80225 6.97153 7.54005 7.31713 6.41552C7.66274 5.291 8.14013 4.30479 8.74931 3.45691C9.35848 2.60903 10.0596 1.90998 10.8526 1.35976L13.1009 3.55111C12.4063 3.98005 11.7832 4.51809 11.2314 5.16522C10.6997 5.81209 10.2892 6.55742 10 7.4012C9.71105 8.26497 9.57325 9.21682 9.58658 10.2567C9.59838 11.1767 9.71851 11.9652 9.94695 12.6223C10.1757 13.2994 10.5022 13.8053 10.9265 14.1399C11.3711 14.4942 11.8933 14.6675 12.4933 14.6598C13.0732 14.6524 13.5806 14.4459 14.0155 14.0402C14.4506 13.6546 14.7813 12.9303 15.0077 11.8673L15.9418 7.505C16.1864 6.30177 16.5437 5.3071 17.0136 4.52101C17.4836 3.73492 18.0561 3.14753 18.7312 2.75884C19.4262 2.36989 20.2037 2.1699 21.0637 2.15887C22.1836 2.14451 23.1973 2.43153 24.105 3.01994C25.0328 3.62809 25.7742 4.50865 26.329 5.66163C26.9039 6.81436 27.2015 8.19065 27.2221 9.79052Z" fill="#4A3AFF"/>
<path d="M25.0197 31.3969C25.3528 32.8184 25.3454 34.1451 24.9973 35.377C24.6492 36.6089 23.9715 37.6614 22.9641 38.5343C21.9808 39.4221 20.7005 40.0508 19.1232 40.4205C17.5459 40.7902 16.1099 40.7981 14.8149 40.4442C13.5441 40.1053 12.479 39.4613 11.6198 38.5123C10.7606 37.5634 10.1644 36.3781 9.83127 34.9566C9.49811 33.5352 9.50557 32.2085 9.85364 30.9765C10.2017 29.7446 10.8674 28.6847 11.8508 27.7969C12.8536 26.9045 14.1437 26.2735 15.7209 25.9039C17.2982 25.5342 18.7245 25.5286 20 25.887C21.2949 26.2408 22.3719 26.8922 23.2311 27.8412C24.0904 28.7902 24.6865 29.9754 25.0197 31.3969ZM22.5662 31.9719C22.3608 31.0957 21.9806 30.3939 21.4257 29.8666C20.8948 29.3543 20.2108 29.0216 19.3738 28.8685C18.5368 28.7155 17.5633 28.769 16.4534 29.0292C15.3629 29.2847 14.4671 29.6693 13.7658 30.1829C13.0839 30.6919 12.6093 31.2962 12.3418 31.9956C12.0984 32.71 12.0794 33.5054 12.2848 34.3816C12.4902 35.2579 12.8583 35.9522 13.3892 36.4645C13.9396 36.9723 14.6333 37.3028 15.4703 37.4558C16.3268 37.6043 17.3003 37.5507 18.3907 37.2952C19.5006 37.035 20.3965 36.6505 21.0784 36.1414C21.7602 35.6324 22.2251 35.0305 22.4731 34.3355C22.7405 33.6361 22.7715 32.8482 22.5662 31.9719Z" fill="#4A3AFF"/>
<path d="M18.2875 58.7883C17.9102 57.9932 17.7165 57.1886 17.7064 56.3743C17.7049 55.578 17.868 54.8254 18.1957 54.1165C18.5415 53.3989 19.0062 52.7689 19.59 52.2262L20.2179 52.3599L16.3206 53.9437L15.1116 51.396L34.7613 42.0713L36.1375 44.9713L26.6243 49.4858L26.9308 48.9419C28.0332 48.8393 29.0798 49.0621 30.0705 49.6103C31.0793 50.15 31.8623 51.007 32.4197 52.1815C32.9341 53.2656 33.1257 54.3923 32.9943 55.5615C32.8714 56.7489 32.4104 57.8532 31.611 58.8745C30.8117 59.8958 29.6622 60.7623 28.1625 61.474C26.6989 62.1685 25.3145 62.4934 24.0093 62.4486C22.7127 62.422 21.5656 62.0808 20.5682 61.4251C19.5793 60.7875 18.8191 59.9085 18.2875 58.7883ZM20.3225 57.0588C20.8799 58.2332 21.7285 58.9485 22.8683 59.2046C24.0348 59.4701 25.3498 59.2556 26.8134 58.5611C28.277 57.8665 29.27 56.9968 29.7925 55.9519C30.3149 54.907 30.2975 53.7973 29.7402 52.6229C29.38 51.864 28.8683 51.2988 28.205 50.9273C27.5597 50.5472 26.8076 50.3618 25.9486 50.371C25.0981 50.3982 24.1851 50.6433 23.2094 51.1063C22.2517 51.5608 21.4934 52.1088 20.9345 52.7504C20.3937 53.3834 20.0664 54.07 19.9528 54.8102C19.8477 55.5684 19.971 56.318 20.3225 57.0588Z" fill="#4A3AFF"/>
<path d="M26.8325 73.0717L38.9237 64.1947L40.5394 66.3953L38.5405 68.235C39.5672 67.9774 40.5128 68.0151 41.3775 68.3479C42.2701 68.685 43.0596 69.3211 43.7461 70.2562C43.9237 70.498 44.077 70.7576 44.2062 71.0349C44.3515 71.3004 44.443 71.5434 44.4808 71.7638L41.9413 73.0699C41.8756 72.8452 41.776 72.6082 41.6426 72.3588C41.5371 72.1137 41.3482 71.8058 41.076 71.435C40.709 70.9352 40.211 70.5441 39.5819 70.2617C38.9688 69.9674 38.278 69.8544 37.5092 69.9225C36.7523 70.0068 35.9628 70.3508 35.1406 70.9544L28.7322 75.6593L26.8325 73.0717Z" fill="#4A3AFF"/>
<path d="M43.0897 92.3767C41.994 91.3523 41.2415 90.2243 40.8322 88.9929C40.423 87.7614 40.3807 86.5035 40.7054 85.219C41.0584 83.9337 41.7882 82.6993 42.8946 81.516C44.001 80.3326 45.1767 79.529 46.4218 79.1051C47.6952 78.6803 48.9527 78.6239 50.1942 78.9359C51.4358 79.248 52.5752 79.8889 53.6124 80.8587C54.6789 81.8558 55.3797 82.9219 55.715 84.0567C56.0503 85.1916 56.06 86.3233 55.7442 87.4518C55.4284 88.5803 54.8197 89.6266 53.9182 90.5908C53.6723 90.8538 53.4328 91.0953 53.1996 91.3154C52.9665 91.5355 52.7533 91.7195 52.5602 91.8675L43.751 83.631L45.431 81.834L53.2104 89.1076L51.7211 88.3723C52.65 87.3789 53.1119 86.387 53.1069 85.3967C53.1156 84.3917 52.689 83.4863 51.827 82.6804C51.1988 82.093 50.5144 81.7269 49.7737 81.582C49.0331 81.4371 48.2654 81.5407 47.4706 81.8929C46.6896 82.2304 45.9097 82.8155 45.1312 83.6483C44.3662 84.4664 43.8489 85.2832 43.5792 86.0988C43.3094 86.9145 43.279 87.6937 43.4879 88.4367C43.6968 89.1796 44.13 89.8584 44.7874 90.4731C45.5179 91.156 46.2393 91.5705 46.9517 91.7163C47.6641 91.8622 48.384 91.8097 49.1114 91.5589L50.1545 94.177C49.3998 94.457 48.6116 94.5826 47.7899 94.5536C46.9965 94.5236 46.1974 94.3241 45.3926 93.9549C44.5878 93.5857 43.8201 93.0597 43.0897 92.3767Z" fill="#4A3AFF"/>
<path d="M81.6671 105.481C82.0636 104.563 82.1117 103.745 81.8117 103.027C81.5379 102.299 80.9604 101.745 80.079 101.364C79.2527 101.007 78.4626 100.895 77.7085 101.027C76.9545 101.159 76.2534 101.597 75.6054 102.341L73.5785 100.224C74.411 99.2545 75.4788 98.6481 76.7821 98.4048C78.1036 98.1694 79.5723 98.4006 81.1881 99.0983C82.2898 99.574 83.1837 100.178 83.8698 100.91C84.5638 101.623 84.9948 102.441 85.163 103.363C85.3496 104.294 85.2011 105.319 84.7174 106.439L82.0654 112.581C81.7721 113.26 81.9651 113.746 82.6445 114.04C82.975 114.182 83.3161 114.275 83.6679 114.318L82.6226 116.285C82.1131 116.305 81.537 116.176 80.8943 115.898C80.3068 115.645 79.8179 115.314 79.4277 114.905C79.0638 114.487 78.8353 114.007 78.7423 113.466C78.6755 112.914 78.7808 112.317 79.0583 111.674L79.1416 111.482L79.7594 111.716C79.2849 112.36 78.6876 112.81 77.9673 113.066C77.255 113.303 76.5076 113.394 75.7252 113.339C74.9507 113.266 74.2145 113.079 73.5168 112.778C72.6538 112.405 71.9329 111.931 71.3541 111.354C70.7937 110.785 70.4304 110.138 70.2643 109.413C70.1245 108.677 70.2329 107.896 70.5897 107.07C71.0337 106.042 71.7289 105.34 72.6753 104.964C73.6401 104.597 74.7892 104.559 76.1225 104.852L81.9175 106.112L80.9981 108.166L76.7697 107.288C75.9351 107.102 75.2656 107.063 74.7611 107.172C74.2565 107.281 73.8893 107.602 73.6594 108.134C73.4374 108.648 73.4518 109.145 73.7026 109.623C73.9797 110.091 74.4488 110.468 75.1098 110.754C75.5688 110.952 76.0333 111.087 76.5032 111.159C76.9914 111.239 77.4615 111.235 77.9134 111.147C78.3733 111.041 78.7783 110.835 79.1284 110.528C79.5048 110.211 79.8119 109.778 80.0498 109.227L81.6671 105.481Z" fill="#4A3AFF"/>
<path d="M128.575 103.193L128.127 122.988L125.158 122.92L125.417 111.463L125.781 106.01L125.751 106.01L119.339 122.789L116.67 122.728L111.024 105.676L110.994 105.675L111.111 111.139L110.851 122.596L107.882 122.529L108.33 102.734L113.099 102.842L116.829 114.39L118.102 119.13L118.162 119.131L119.678 114.454L123.896 103.087L128.575 103.193Z" fill="#4A3AFF"/>
<path d="M146.534 110.021C146.309 109.046 145.864 108.359 145.197 107.958C144.545 107.534 143.751 107.429 142.815 107.645C141.938 107.847 141.235 108.224 140.706 108.777C140.177 109.33 139.871 110.098 139.79 111.082L136.903 110.577C136.999 109.303 137.5 108.182 138.406 107.214C139.331 106.241 140.652 105.557 142.367 105.162C143.536 104.893 144.614 104.85 145.6 105.033C146.582 105.197 147.414 105.6 148.096 106.243C148.797 106.882 149.285 107.796 149.559 108.985L151.061 115.504C151.227 116.225 151.67 116.503 152.391 116.337C152.742 116.256 153.072 116.129 153.381 115.955L153.704 118.158C153.305 118.476 152.765 118.714 152.082 118.871C151.459 119.014 150.869 119.037 150.313 118.94C149.772 118.818 149.303 118.567 148.908 118.186C148.527 117.781 148.258 117.238 148.101 116.555L148.054 116.351L148.69 116.173C148.69 116.974 148.475 117.69 148.046 118.323C147.613 118.936 147.065 119.452 146.402 119.872C145.735 120.272 145.031 120.557 144.29 120.728C143.374 120.939 142.512 120.983 141.705 120.862C140.916 120.735 140.24 120.429 139.677 119.943C139.128 119.434 138.753 118.74 138.551 117.863C138.299 116.772 138.444 115.794 138.984 114.931C139.543 114.063 140.446 113.352 141.694 112.798L147.109 110.381L147.585 112.58L143.659 114.377C142.876 114.722 142.314 115.087 141.972 115.474C141.63 115.861 141.524 116.337 141.654 116.902C141.78 117.447 142.086 117.839 142.571 118.076C143.072 118.289 143.673 118.315 144.375 118.153C144.862 118.041 145.316 117.874 145.737 117.654C146.178 117.43 146.555 117.148 146.866 116.809C147.174 116.451 147.378 116.045 147.479 115.591C147.594 115.112 147.585 114.581 147.45 113.996L146.534 110.021Z" fill="#4A3AFF"/>
<path d="M168.354 112.826C166.988 113.445 165.62 113.747 164.251 113.731C162.882 113.714 161.651 113.372 160.558 112.704L161.787 110.039C162.526 110.604 163.372 110.945 164.326 111.062C165.289 111.152 166.299 110.957 167.355 110.478C168.193 110.098 168.792 109.651 169.152 109.137C169.511 108.622 169.571 108.101 169.332 107.573C169.175 107.227 168.92 106.98 168.568 106.832C168.225 106.658 167.702 106.643 166.999 106.786L163.857 107.486C162.268 107.855 161.019 107.862 160.111 107.505C159.194 107.13 158.508 106.442 158.054 105.44C157.716 104.693 157.62 103.902 157.768 103.066C157.916 102.23 158.323 101.431 158.987 100.669C159.661 99.8797 160.591 99.2168 161.775 98.6799C163.141 98.0605 164.418 97.7777 165.606 97.8318C166.786 97.8676 167.834 98.2161 168.749 98.8774L167.495 101.488C166.818 100.917 166.065 100.61 165.234 100.57C164.395 100.511 163.611 100.647 162.882 100.978C162.299 101.242 161.832 101.542 161.479 101.878C161.126 102.213 160.898 102.558 160.795 102.912C160.692 103.266 160.719 103.616 160.876 103.963C161.041 104.327 161.322 104.584 161.719 104.733C162.117 104.882 162.703 104.869 163.48 104.692L166.892 103.936C168.319 103.596 169.437 103.616 170.246 103.996C171.065 104.349 171.673 104.963 172.069 105.837C172.466 106.712 172.589 107.589 172.439 108.469C172.281 109.332 171.857 110.139 171.166 110.891C170.475 111.644 169.538 112.289 168.354 112.826Z" fill="#4A3AFF"/>
<path d="M178.729 88.8457C179.705 88.148 180.639 87.7014 181.532 87.5059C182.43 87.2825 183.3 87.2625 184.144 87.446C184.988 87.6295 185.771 87.9676 186.491 88.4603L184.724 91.1984C183.978 90.601 183.229 90.2757 182.478 90.2224C181.732 90.1412 180.984 90.368 180.236 90.9029C179.503 91.4262 178.999 92.0447 178.722 92.7586C178.434 93.4561 178.379 94.221 178.556 95.0533C178.749 95.874 179.177 96.7481 179.84 97.6756C180.491 98.5868 181.181 99.2609 181.911 99.6978C182.642 100.135 183.383 100.33 184.137 100.283C184.89 100.237 185.625 99.9574 186.34 99.4458C186.894 99.0504 187.31 98.6179 187.589 98.1482C187.856 97.6622 187.998 97.1553 188.014 96.6276C188.035 96.0719 187.914 95.5069 187.651 94.9327L190.594 94.0463C190.889 94.9413 190.991 95.8399 190.898 96.742C190.81 97.6162 190.518 98.4637 190.023 99.2845C189.517 100.089 188.799 100.823 187.872 101.486C186.668 102.346 185.422 102.856 184.134 103.014C182.846 103.172 181.604 102.966 180.409 102.394C179.219 101.794 178.152 100.836 177.21 99.5175C176.269 98.1995 175.713 96.8883 175.543 95.5841C175.377 94.2519 175.57 93.008 176.121 91.8524C176.688 90.6852 177.557 89.6829 178.729 88.8457Z" fill="#4A3AFF"/>
<path d="M193.396 75.8557C194.388 74.784 195.491 74.0476 196.707 73.6465C197.923 73.2453 199.174 73.2179 200.461 73.5641C201.747 73.8821 202.985 74.5911 204.174 75.6912C205.363 76.7913 206.174 77.977 206.605 79.2481C207.036 80.4909 207.098 81.734 206.793 82.9771C206.487 84.2203 205.839 85.3778 204.847 86.4495C203.856 87.5212 202.752 88.2576 201.537 88.6587C200.321 89.0598 199.07 89.1014 197.784 88.7835C196.483 88.4519 195.238 87.7361 194.049 86.636C192.86 85.5359 192.057 84.357 191.64 83.0995C191.208 81.8284 191.145 80.5712 191.451 79.328C191.756 78.0849 192.405 76.9274 193.396 75.8557ZM195.246 77.567C194.635 78.2277 194.266 78.9355 194.14 79.6905C194.012 80.4172 194.12 81.1703 194.461 81.9495C194.803 82.7288 195.392 83.5055 196.229 84.2797C197.051 85.0402 197.871 85.5674 198.689 85.8611C199.493 86.1412 200.259 86.1963 200.989 86.0264C201.717 85.8282 202.386 85.3988 202.998 84.7382C203.609 84.0775 203.978 83.3838 204.106 82.6571C204.218 81.9167 204.104 81.1569 203.762 80.3777C203.406 79.5848 202.817 78.8081 201.994 78.0475C201.158 77.2734 200.337 76.7462 199.534 76.4661C198.731 76.186 197.971 76.1377 197.257 76.3212C196.527 76.4911 195.857 76.9063 195.246 77.567Z" fill="#4A3AFF"/>
<path d="M201.23 58.8426L213.856 66.7731C214.483 67.1667 215.041 67.2931 215.531 67.1521C216.032 66.9942 216.458 66.6358 216.809 66.0769C217.096 65.6197 217.278 65.1791 217.356 64.7553C217.416 64.3208 217.41 63.8798 217.336 63.4324L219.701 64.0673C219.795 64.6696 219.763 65.3225 219.604 66.0259C219.44 66.7019 219.139 67.387 218.703 68.0814C218.246 68.8096 217.707 69.4042 217.087 69.8649C216.467 70.3257 215.788 70.5606 215.05 70.5695C214.295 70.5678 213.481 70.3042 212.606 69.7786L200.285 62.0396L201.23 58.8426ZM207.709 56.8187L209.843 58.1591L203.86 67.6857L201.726 66.3454L207.709 56.8187Z" fill="#4A3AFF"/>
<path d="M227.309 50.6574C226.76 52.0531 225.988 53.1677 224.993 54.0013C223.998 54.8348 222.844 55.3368 221.53 55.5073C220.205 55.6518 218.789 55.4273 217.282 54.8337C215.774 54.2401 214.595 53.4424 213.742 52.4405C212.879 51.4126 212.364 50.2641 212.198 48.9948C212.031 47.7255 212.208 46.4302 212.728 45.109C213.263 43.7505 213.997 42.7067 214.929 41.9775C215.861 41.2482 216.909 40.8229 218.075 40.7016C219.24 40.5802 220.437 40.7613 221.666 41.245C222.001 41.3769 222.313 41.5108 222.604 41.6466C222.894 41.7825 223.144 41.913 223.352 42.0381L218.933 53.2594L216.644 52.3581L220.547 42.4487L220.411 44.104C219.145 43.6057 218.053 43.541 217.134 43.9099C216.196 44.2715 215.511 45.0012 215.079 46.0991C214.764 46.8993 214.675 47.6705 214.813 48.4125C214.95 49.1546 215.329 49.8303 215.949 50.4398C216.55 51.042 217.381 51.5519 218.442 51.9696C219.484 52.38 220.434 52.5606 221.291 52.5114C222.149 52.4622 222.885 52.2039 223.499 51.7364C224.113 51.2688 224.585 50.6163 224.915 49.7789C225.281 48.8485 225.401 48.0252 225.275 47.3091C225.148 46.593 224.835 45.9428 224.334 45.3587L226.385 43.4258C226.923 44.0245 227.329 44.7113 227.605 45.486C227.869 46.2348 227.977 47.0513 227.93 47.9355C227.882 48.8197 227.676 49.727 227.309 50.6574Z" fill="#4A3AFF"/>
<path d="M232.125 34.2859L217.394 31.4611L217.908 28.7799L220.616 28.9937C219.729 28.4163 219.113 27.6975 218.769 26.8373C218.409 25.9537 218.338 24.9423 218.557 23.803C218.613 23.5084 218.699 23.2194 218.814 22.9361C218.91 22.649 219.026 22.4167 219.162 22.2391L221.847 23.2121C221.727 23.4131 221.621 23.6473 221.529 23.9148C221.421 24.1588 221.324 24.5067 221.237 24.9585C221.12 25.5674 221.172 26.1985 221.393 26.8518C221.594 27.5013 221.981 28.0847 222.554 28.6018C223.131 29.0993 223.92 29.4441 224.922 29.6362L232.73 31.1334L232.125 34.2859Z" fill="#4A3AFF"/>
<path d="M219.618 9.26898C219.623 7.80899 219.938 6.52016 220.562 5.40251C221.186 4.28485 222.09 3.41825 223.272 2.8027C224.434 2.16707 225.826 1.85231 227.446 1.85842C229.066 1.86452 230.464 2.18979 231.642 2.83423C232.8 3.4586 233.686 4.33194 234.302 5.45427C234.918 6.5766 235.223 7.86776 235.217 9.32775C235.212 10.7877 234.897 12.0766 234.273 13.1942C233.649 14.3119 232.755 15.1885 231.593 15.8241C230.411 16.4597 229.009 16.7744 227.389 16.7683C225.769 16.7622 224.381 16.437 223.223 15.7926C222.045 15.1482 221.149 14.2648 220.533 13.1425C219.917 12.0201 219.612 10.729 219.618 9.26898ZM222.138 9.27847C222.134 10.1785 222.341 10.9493 222.759 11.5908C223.157 12.2123 223.745 12.6946 224.523 13.0375C225.302 13.3804 226.262 13.554 227.402 13.5583C228.521 13.5626 229.482 13.3962 230.283 13.0592C231.065 12.7221 231.666 12.2444 232.089 11.626C232.491 10.9875 232.694 10.2182 232.698 9.31825C232.701 8.41826 232.504 7.65751 232.106 7.03601C231.688 6.41443 231.09 5.93218 230.312 5.58924C229.513 5.24623 228.553 5.07261 227.433 5.06839C226.293 5.0641 225.333 5.23048 224.552 5.56754C223.77 5.9046 223.179 6.38237 222.776 7.00086C222.354 7.61927 222.141 8.37848 222.138 9.27847Z" fill="#4A3AFF"/>
</svg>
