<svg width="24" height="25" viewBox="0 0 24 25" fill="none" xmlns="http://www.w3.org/2000/svg">
<path d="M19.1468 19.5329C18.7608 18.772 18.2513 18.0581 17.6185 17.4214C14.3733 14.1563 9.11183 14.1563 5.86665 17.4214C5.23378 18.0581 4.72434 18.772 4.33831 19.5329M1.03662 12.4887C1.03662 6.53985 5.82981 1.71732 11.7425 1.71732C17.6552 1.71732 22.4484 6.53985 22.4484 12.4887C22.4484 18.4376 17.6552 23.2602 11.7425 23.2602C5.82981 23.2602 1.03662 18.4376 1.03662 12.4887ZM15.6356 10.5303C15.6356 12.6935 13.8926 14.4472 11.7425 14.4472C9.59243 14.4472 7.84946 12.6935 7.84946 10.5303C7.84946 8.36707 9.59243 6.61342 11.7425 6.61342C13.8926 6.61342 15.6356 8.36707 15.6356 10.5303Z" stroke="#201F54" stroke-width="2"/>
</svg>
